<?xml version="1.0" standalone="no"?>
<!DOCTYPE svg PUBLIC "-//W3C//DTD SVG 20010904//EN"
 "http://www.w3.org/TR/2001/REC-SVG-20010904/DTD/svg10.dtd">
<svg version="1.0" xmlns="http://www.w3.org/2000/svg"
 width="700.000000pt" height="700.000000pt" viewBox="0 0 700.000000 700.000000"
 preserveAspectRatio="xMidYMid meet">
<metadata>
Created by potrace 1.11, written by Peter Selinger 2001-2013
</metadata>
<g transform="translate(0.000000,700.000000) scale(0.100000,-0.100000)"
fill="#000000" stroke="none">
<path d="M433 6558 c6 -14 178 -410 228 -523 17 -38 37 -83 44 -100 7 -16 45
-103 84 -192 39 -89 71 -164 71 -167 0 -3 15 -38 34 -78 18 -40 55 -122 81
-183 26 -60 60 -138 76 -173 16 -35 29 -66 29 -68 0 -3 12 -31 26 -62 32 -70
18 -38 224 -512 151 -347 294 -675 462 -1060 28 -63 59 -135 70 -160 11 -25
25 -58 33 -75 7 -16 104 -239 215 -495 111 -256 218 -501 237 -545 54 -122 61
-138 201 -460 71 -165 165 -379 207 -475 42 -96 82 -188 89 -205 8 -16 27 -61
44 -100 17 -38 94 -216 172 -395 128 -294 167 -375 159 -330 -2 13 4 70 17
151 2 15 6 47 9 70 3 24 7 60 10 79 2 19 7 54 10 78 7 60 12 96 36 277 11 88
23 174 25 190 2 17 6 53 10 80 4 28 8 61 9 75 2 14 5 43 8 65 4 22 9 64 12 94
4 30 8 61 10 70 1 9 6 45 10 81 4 36 9 72 10 80 2 8 6 38 9 65 3 28 9 66 11
85 3 19 7 51 9 70 7 62 18 154 22 175 2 11 6 40 10 65 7 61 34 266 40 311 2
20 6 54 9 75 2 21 6 55 9 74 2 19 7 58 11 85 4 28 8 61 10 75 2 14 6 50 10 80
4 30 8 66 10 80 6 40 22 168 41 315 2 22 7 51 9 65 2 14 7 48 10 75 3 28 7 59
9 70 3 17 117 94 201 135 11 5 38 21 60 34 22 14 51 31 65 38 25 14 357 207
590 343 170 99 607 353 650 378 64 36 414 239 460 267 25 15 122 71 215 125
94 54 203 117 243 141 40 24 77 44 82 44 6 0 10 4 10 9 0 5 6 11 14 13 21 5
596 341 596 348 0 4 -145 37 -323 73 -178 37 -333 70 -345 72 -12 3 -32 7 -44
10 -13 3 -39 8 -58 12 -19 4 -37 8 -40 8 -3 1 -23 5 -45 10 -56 11 -72 14 -97
20 -13 3 -45 10 -73 15 -55 11 -75 15 -285 60 -80 17 -208 44 -285 60 -77 16
-214 44 -305 64 -179 38 -493 104 -525 110 -44 9 -274 57 -338 71 -37 8 -80
17 -95 20 -15 2 -70 14 -122 25 -52 11 -138 29 -190 40 -52 11 -183 38 -290
60 -107 23 -206 43 -220 46 -13 3 -56 12 -95 20 -38 9 -79 17 -90 20 -11 2
-108 22 -215 45 -107 23 -204 43 -215 45 -11 2 -114 24 -230 48 -225 47 -445
93 -483 101 -13 2 -31 6 -40 9 -9 3 -33 7 -52 10 -19 3 -62 12 -95 20 -33 8
-73 17 -90 20 -16 3 -41 7 -55 10 -14 3 -34 8 -45 10 -34 7 -164 34 -335 70
-482 101 -649 136 -655 136 -4 0 -5 -6 -2 -12z"/>
</g>
</svg>
