<?xml version="1.0" encoding="utf-8"?>
<!-- Generator: Adobe Illustrator 19.0.0, SVG Export Plug-In . SVG Version: 6.00 Build 0)  -->
<svg version="1.1" id="Layer_1" xmlns="http://www.w3.org/2000/svg" xmlns:xlink="http://www.w3.org/1999/xlink" x="0px" y="0px"
	 viewBox="0 0 80.7 62.3" enable-background="new 0 0 80.7 62.3" xml:space="preserve">
<linearGradient id="XMLID_67_" gradientUnits="userSpaceOnUse" x1="25.8366" y1="37.9064" x2="31.133" y2="37.9064">
	<stop  offset="0" style="stop-color:#9B247D"/>
	<stop  offset="1" style="stop-color:#462F81"/>
</linearGradient>
<circle id="XMLID_197_" fill="url(#XMLID_67_)" cx="28.5" cy="37.9" r="2.6"/>
<linearGradient id="XMLID_68_" gradientUnits="userSpaceOnUse" x1="50.1997" y1="37.9064" x2="55.4961" y2="37.9064">
	<stop  offset="0" style="stop-color:#9B247D"/>
	<stop  offset="1" style="stop-color:#462F81"/>
</linearGradient>
<circle id="XMLID_196_" fill="url(#XMLID_68_)" cx="52.8" cy="37.9" r="2.6"/>
<g id="XMLID_189_">
	<linearGradient id="XMLID_69_" gradientUnits="userSpaceOnUse" x1="17.9492" y1="29.8438" x2="62.7392" y2="29.8438">
		<stop  offset="0" style="stop-color:#9B247D"/>
		<stop  offset="1" style="stop-color:#462F81"/>
	</linearGradient>
	<path id="XMLID_190_" fill="url(#XMLID_69_)" d="M62.4,36.1v-4.3h-0.8l-0.3-0.6l-3.8-9.4H27.5l-4.5,9.4h-4.7v5
		c-0.2,0-0.3,0.2-0.3,0.4v1c0,0.2,0.2,0.4,0.4,0.4h7.1c0-1.7,1.4-3.1,3.1-3.1s3.1,1.4,3.1,3.1h18.2c0-1.7,1.4-3.1,3.1-3.1
		s3.1,1.4,3.1,3.1h6.3c0.2,0,0.4-0.2,0.4-0.4v-1C62.7,36.3,62.6,36.2,62.4,36.1z M59.6,29.9H57l-0.3-7L59.6,29.9z M43.8,22.9H53v7
		h-9.2V22.9z M31.5,22.9h8.8v7h-8.8V22.9z M29.1,22.9v7h-3.9L29.1,22.9z"/>
</g>
<linearGradient id="XMLID_70_" gradientUnits="userSpaceOnUse" x1="61.3793" y1="31.4688" x2="62.4192" y2="31.4688">
	<stop  offset="0" style="stop-color:#9B247D"/>
	<stop  offset="1" style="stop-color:#462F81"/>
</linearGradient>
<polygon id="XMLID_173_" fill="url(#XMLID_70_)" points="62.4,31.2 62.4,31.8 61.6,31.8 61.4,31.2 "/>
</svg>
