<?xml version="1.0" encoding="utf-8"?>
<!-- Generator: Adobe Illustrator 19.0.0, SVG Export Plug-In . SVG Version: 6.00 Build 0)  -->
<svg version="1.1" id="Layer_1" xmlns="http://www.w3.org/2000/svg" xmlns:xlink="http://www.w3.org/1999/xlink" x="0px" y="0px"
	 viewBox="0 0 2000 150" enable-background="new 0 0 2000 150" xml:space="preserve">
<linearGradient id="XMLID_54_" gradientUnits="userSpaceOnUse" x1="1879.267" y1="124.1205" x2="1884.5632" y2="124.1205">
	<stop  offset="0" style="stop-color:#9B247D"/>
	<stop  offset="1" style="stop-color:#462F81"/>
</linearGradient>
<circle id="XMLID_4_" fill="url(#XMLID_54_)" cx="1881.9" cy="124.1" r="2.6"/>
<linearGradient id="XMLID_85_" gradientUnits="userSpaceOnUse" x1="1903.63" y1="124.1205" x2="1908.9264" y2="124.1205">
	<stop  offset="0" style="stop-color:#9B247D"/>
	<stop  offset="1" style="stop-color:#462F81"/>
</linearGradient>
<circle id="XMLID_3_" fill="url(#XMLID_85_)" cx="1906.3" cy="124.1" r="2.6"/>
<g id="XMLID_1_">
	<linearGradient id="XMLID_86_" gradientUnits="userSpaceOnUse" x1="1871.3795" y1="116.0578" x2="1916.1696" y2="116.0578">
		<stop  offset="0" style="stop-color:#9B247D"/>
		<stop  offset="1" style="stop-color:#462F81"/>
	</linearGradient>
	<path id="XMLID_46_" fill="url(#XMLID_86_)" d="M1915.8,122.3V118h-0.8l-0.3-0.6l-3.8-9.4h-30.1l-4.5,9.4h-4.7v5
		c-0.2,0-0.3,0.2-0.3,0.4v1c0,0.2,0.2,0.4,0.4,0.4h7.1c0-1.7,1.4-3.1,3.1-3.1s3.1,1.4,3.1,3.1h18.2c0-1.7,1.4-3.1,3.1-3.1
		s3.1,1.4,3.1,3.1h6.3c0.2,0,0.4-0.2,0.4-0.4v-1C1916.2,122.5,1916,122.4,1915.8,122.3z M1913.1,116.1h-2.6l-0.3-7L1913.1,116.1z
		 M1897.2,109.1h9.2v7h-9.2V109.1z M1884.9,109.1h8.8v7h-8.8V109.1z M1882.6,109.1v7h-3.9L1882.6,109.1z"/>
</g>
<linearGradient id="XMLID_87_" gradientUnits="userSpaceOnUse" x1="1947.4707" y1="123.1807" x2="1954.9175" y2="123.1807">
	<stop  offset="0" style="stop-color:#9B247D"/>
	<stop  offset="1" style="stop-color:#462F81"/>
</linearGradient>
<circle id="XMLID_15_" fill="url(#XMLID_87_)" cx="1951.2" cy="123.2" r="3.7"/>
<linearGradient id="XMLID_88_" gradientUnits="userSpaceOnUse" x1="1981.7257" y1="123.1807" x2="1989.1725" y2="123.1807">
	<stop  offset="0" style="stop-color:#9B247D"/>
	<stop  offset="1" style="stop-color:#462F81"/>
</linearGradient>
<circle id="XMLID_14_" fill="url(#XMLID_88_)" cx="1985.4" cy="123.2" r="3.7"/>
<g id="XMLID_9_">
	<linearGradient id="XMLID_89_" gradientUnits="userSpaceOnUse" x1="1936.3795" y1="109.9478" x2="1999.3495" y2="109.9478">
		<stop  offset="0" style="stop-color:#9B247D"/>
		<stop  offset="1" style="stop-color:#462F81"/>
	</linearGradient>
	<path id="XMLID_37_" fill="url(#XMLID_89_)" d="M1998.9,120.7v-24h-52.4l-9.7,12.4v11.6c-0.3,0-0.4,0.3-0.4,0.6v1.4
		c0,0.3,0.3,0.6,0.6,0.6h9.9c0-2.4,1.9-4.4,4.4-4.4c2.4,0,4.4,2,4.4,4.4h25.5c0-2.4,1.9-4.4,4.4-4.4c2.4,0,4.3,2,4.3,4.4h8.9
		c0.3,0,0.6-0.3,0.6-0.6v-1.4C1999.3,121,1999.2,120.7,1998.9,120.7z M1946.9,109.1h-7.8l7.8-9.8V109.1z M1948.6,109.1v-9.8h4.2v9.8
		H1948.6z"/>
</g>
<linearGradient id="XMLID_90_" gradientUnits="userSpaceOnUse" x1="1627.4707" y1="123.0421" x2="1634.9175" y2="123.0421">
	<stop  offset="0" style="stop-color:#9B247D"/>
	<stop  offset="1" style="stop-color:#462F81"/>
</linearGradient>
<circle id="XMLID_53_" fill="url(#XMLID_90_)" cx="1631.2" cy="123" r="3.7"/>
<linearGradient id="XMLID_92_" gradientUnits="userSpaceOnUse" x1="1661.7257" y1="123.0421" x2="1669.1725" y2="123.0421">
	<stop  offset="0" style="stop-color:#9B247D"/>
	<stop  offset="1" style="stop-color:#462F81"/>
</linearGradient>
<circle id="XMLID_52_" fill="url(#XMLID_92_)" cx="1665.4" cy="123" r="3.7"/>
<g id="XMLID_41_">
	<linearGradient id="XMLID_93_" gradientUnits="userSpaceOnUse" x1="1616.3795" y1="109.8092" x2="1679.3495" y2="109.8092">
		<stop  offset="0" style="stop-color:#9B247D"/>
		<stop  offset="1" style="stop-color:#462F81"/>
	</linearGradient>
	<path id="XMLID_42_" fill="url(#XMLID_93_)" d="M1678.9,120.5v-24h-52.4l-9.7,12.4v11.6c-0.3,0-0.4,0.3-0.4,0.6v1.4
		c0,0.3,0.3,0.6,0.6,0.6h9.9c0-2.4,1.9-4.4,4.4-4.4c2.4,0,4.4,2,4.4,4.4h25.5c0-2.4,1.9-4.4,4.4-4.4c2.4,0,4.3,2,4.3,4.4h8.9
		c0.3,0,0.6-0.3,0.6-0.6v-1.4C1679.3,120.8,1679.2,120.6,1678.9,120.5z M1626.9,108.9h-7.8l7.8-9.8V108.9z M1628.6,108.9v-9.8h4.2
		v9.8H1628.6z"/>
</g>
<linearGradient id="XMLID_94_" gradientUnits="userSpaceOnUse" x1="1801.9369" y1="123.1359" x2="1810.0619" y2="123.1359">
	<stop  offset="0" style="stop-color:#9B247D"/>
	<stop  offset="1" style="stop-color:#462F81"/>
</linearGradient>
<circle id="XMLID_22_" fill="url(#XMLID_94_)" cx="1806" cy="123.1" r="4.1"/>
<linearGradient id="XMLID_108_" gradientUnits="userSpaceOnUse" x1="1839.3119" y1="123.1359" x2="1847.4369" y2="123.1359">
	<stop  offset="0" style="stop-color:#9B247D"/>
	<stop  offset="1" style="stop-color:#462F81"/>
</linearGradient>
<circle id="XMLID_21_" fill="url(#XMLID_108_)" cx="1843.4" cy="123.1" r="4.1"/>
<g id="XMLID_16_">
	<linearGradient id="XMLID_109_" gradientUnits="userSpaceOnUse" x1="1789.8319" y1="108.6959" x2="1858.5419" y2="108.6959">
		<stop  offset="0" style="stop-color:#9B247D"/>
		<stop  offset="1" style="stop-color:#462F81"/>
	</linearGradient>
	<path id="XMLID_17_" fill="url(#XMLID_109_)" d="M1858.1,120.4V94.3h-57.2l-10.5,13.5v12.6c-0.3,0.1-0.5,0.3-0.5,0.6v1.5
		c0,0.3,0.3,0.6,0.6,0.6h10.8c0-2.6,2.1-4.8,4.8-4.8s4.8,2.1,4.8,4.8h27.9c0-2.6,2.1-4.8,4.8-4.8s4.8,2.1,4.8,4.8h9.7
		c0.3,0,0.6-0.3,0.6-0.6V121C1858.5,120.7,1858.3,120.5,1858.1,120.4z M1801.3,107.8h-8.5l8.5-10.8V107.8z M1814.6,107.8h-11.4V97
		h11.4V107.8z"/>
</g>
<linearGradient id="XMLID_127_" gradientUnits="userSpaceOnUse" x1="1815.6653" y1="99.3705" x2="1858.0619" y2="99.3705">
	<stop  offset="0" style="stop-color:#9B247D"/>
	<stop  offset="1" style="stop-color:#462F81"/>
</linearGradient>
<rect id="XMLID_2_" x="1815.7" y="86.8" fill="url(#XMLID_127_)" width="42.4" height="25.2"/>
<linearGradient id="XMLID_128_" gradientUnits="userSpaceOnUse" x1="1914.8096" y1="117.6828" x2="1915.8495" y2="117.6828">
	<stop  offset="0" style="stop-color:#9B247D"/>
	<stop  offset="1" style="stop-color:#462F81"/>
</linearGradient>
<polygon id="XMLID_30_" fill="url(#XMLID_128_)" points="1915.8,117.4 1915.8,118 1915.1,118 1914.8,117.4 "/>
<linearGradient id="XMLID_129_" gradientUnits="userSpaceOnUse" x1="1745.307" y1="123.7325" x2="1750.6034" y2="123.7325">
	<stop  offset="0" style="stop-color:#9B247D"/>
	<stop  offset="1" style="stop-color:#462F81"/>
</linearGradient>
<circle id="XMLID_25_" fill="url(#XMLID_129_)" cx="1748" cy="123.7" r="2.6"/>
<linearGradient id="XMLID_130_" gradientUnits="userSpaceOnUse" x1="1769.6702" y1="123.7325" x2="1774.9664" y2="123.7325">
	<stop  offset="0" style="stop-color:#9B247D"/>
	<stop  offset="1" style="stop-color:#462F81"/>
</linearGradient>
<circle id="XMLID_24_" fill="url(#XMLID_130_)" cx="1772.3" cy="123.7" r="2.6"/>
<g id="XMLID_7_">
	<linearGradient id="XMLID_131_" gradientUnits="userSpaceOnUse" x1="1737.4196" y1="115.6699" x2="1782.2096" y2="115.6699">
		<stop  offset="0" style="stop-color:#9B247D"/>
		<stop  offset="1" style="stop-color:#462F81"/>
	</linearGradient>
	<path id="XMLID_8_" fill="url(#XMLID_131_)" d="M1781.9,121.9v-4.3h-0.8l-0.3-0.6l-3.8-9.4h-30.1l-4.5,9.4h-4.7v5
		c-0.2,0-0.3,0.2-0.3,0.4v1c0,0.2,0.2,0.4,0.4,0.4h7.1c0-1.7,1.4-3.1,3.1-3.1s3.1,1.4,3.1,3.1h18.2c0-1.7,1.4-3.1,3.1-3.1
		s3.1,1.4,3.1,3.1h6.3c0.2,0,0.4-0.2,0.4-0.4v-1C1782.2,122.1,1782.1,122,1781.9,121.9z M1779.1,115.7h-2.6l-0.3-7L1779.1,115.7z
		 M1763.3,108.7h9.2v7h-9.2V108.7z M1751,108.7h8.8v7h-8.8V108.7z M1748.6,108.7v7h-3.9L1748.6,108.7z"/>
</g>
<linearGradient id="XMLID_132_" gradientUnits="userSpaceOnUse" x1="1780.8496" y1="116.2949" x2="1781.8895" y2="116.2949">
	<stop  offset="0" style="stop-color:#9B247D"/>
	<stop  offset="1" style="stop-color:#462F81"/>
</linearGradient>
<polygon id="XMLID_6_" fill="url(#XMLID_132_)" points="1781.9,116 1781.9,116.6 1781.1,116.6 1780.8,116 "/>
<linearGradient id="XMLID_133_" gradientUnits="userSpaceOnUse" x1="1696.807" y1="124.3446" x2="1702.1034" y2="124.3446">
	<stop  offset="0" style="stop-color:#9B247D"/>
	<stop  offset="1" style="stop-color:#462F81"/>
</linearGradient>
<circle id="XMLID_40_" fill="url(#XMLID_133_)" cx="1699.5" cy="124.3" r="2.6"/>
<linearGradient id="XMLID_134_" gradientUnits="userSpaceOnUse" x1="1721.1702" y1="124.3446" x2="1726.4664" y2="124.3446">
	<stop  offset="0" style="stop-color:#9B247D"/>
	<stop  offset="1" style="stop-color:#462F81"/>
</linearGradient>
<circle id="XMLID_39_" fill="url(#XMLID_134_)" cx="1723.8" cy="124.3" r="2.6"/>
<g id="XMLID_27_">
	<linearGradient id="XMLID_135_" gradientUnits="userSpaceOnUse" x1="1688.9196" y1="116.2819" x2="1733.7096" y2="116.2819">
		<stop  offset="0" style="stop-color:#9B247D"/>
		<stop  offset="1" style="stop-color:#462F81"/>
	</linearGradient>
	<path id="XMLID_28_" fill="url(#XMLID_135_)" d="M1733.4,122.6v-4.3h-0.8l-0.3-0.6l-3.8-9.4h-30.1l-4.5,9.4h-4.7v5
		c-0.2,0-0.3,0.2-0.3,0.4v1c0,0.2,0.2,0.4,0.4,0.4h7.1c0-1.7,1.4-3.1,3.1-3.1s3.1,1.4,3.1,3.1h18.2c0-1.7,1.4-3.1,3.1-3.1
		s3.1,1.4,3.1,3.1h6.3c0.2,0,0.4-0.2,0.4-0.4v-1C1733.7,122.8,1733.6,122.6,1733.4,122.6z M1730.6,116.3h-2.6l-0.3-7L1730.6,116.3z
		 M1714.8,109.3h9.2v7h-9.2V109.3z M1702.5,109.3h8.8v7h-8.8V109.3z M1700.1,109.3v7h-3.9L1700.1,109.3z"/>
</g>
<linearGradient id="XMLID_136_" gradientUnits="userSpaceOnUse" x1="1732.3496" y1="117.9069" x2="1733.3895" y2="117.9069">
	<stop  offset="0" style="stop-color:#9B247D"/>
	<stop  offset="1" style="stop-color:#462F81"/>
</linearGradient>
<polygon id="XMLID_26_" fill="url(#XMLID_136_)" points="1733.4,117.6 1733.4,118.2 1732.6,118.2 1732.3,117.6 "/>
<linearGradient id="XMLID_137_" gradientUnits="userSpaceOnUse" x1="650.4735" y1="126.237" x2="655.7698" y2="126.237">
	<stop  offset="0" style="stop-color:#9B247D"/>
	<stop  offset="1" style="stop-color:#462F81"/>
</linearGradient>
<circle id="XMLID_249_" fill="url(#XMLID_137_)" cx="653.1" cy="126.2" r="2.6"/>
<linearGradient id="XMLID_138_" gradientUnits="userSpaceOnUse" x1="674.8366" y1="126.237" x2="680.1329" y2="126.237">
	<stop  offset="0" style="stop-color:#9B247D"/>
	<stop  offset="1" style="stop-color:#462F81"/>
</linearGradient>
<circle id="XMLID_248_" fill="url(#XMLID_138_)" cx="677.5" cy="126.2" r="2.6"/>
<g id="XMLID_241_">
	<linearGradient id="XMLID_139_" gradientUnits="userSpaceOnUse" x1="642.5861" y1="118.1743" x2="687.3761" y2="118.1743">
		<stop  offset="0" style="stop-color:#9B247D"/>
		<stop  offset="1" style="stop-color:#462F81"/>
	</linearGradient>
	<path id="XMLID_242_" fill="url(#XMLID_139_)" d="M687.1,124.4v-4.3h-0.8l-0.3-0.6l-3.8-9.4h-30.1l-4.5,9.4h-4.7v5
		c-0.2,0-0.3,0.2-0.3,0.4v1c0,0.2,0.2,0.4,0.4,0.4h7.1c0-1.7,1.4-3.1,3.1-3.1s3.1,1.4,3.1,3.1h18.2c0-1.7,1.4-3.1,3.1-3.1
		s3.1,1.4,3.1,3.1h6.3c0.2,0,0.4-0.2,0.4-0.4v-1C687.4,124.6,687.2,124.5,687.1,124.4z M684.3,118.2h-2.6l-0.3-7L684.3,118.2z
		 M668.4,111.2h9.2v7h-9.2V111.2z M656.1,111.2h8.8v7h-8.8V111.2z M653.8,111.2v7h-3.9L653.8,111.2z"/>
</g>
<linearGradient id="XMLID_140_" gradientUnits="userSpaceOnUse" x1="738.6773" y1="125.2972" x2="746.124" y2="125.2972">
	<stop  offset="0" style="stop-color:#9B247D"/>
	<stop  offset="1" style="stop-color:#462F81"/>
</linearGradient>
<circle id="XMLID_240_" fill="url(#XMLID_140_)" cx="742.4" cy="125.3" r="3.7"/>
<linearGradient id="XMLID_141_" gradientUnits="userSpaceOnUse" x1="772.9323" y1="125.2972" x2="780.379" y2="125.2972">
	<stop  offset="0" style="stop-color:#9B247D"/>
	<stop  offset="1" style="stop-color:#462F81"/>
</linearGradient>
<circle id="XMLID_239_" fill="url(#XMLID_141_)" cx="776.7" cy="125.3" r="3.7"/>
<g id="XMLID_234_">
	<linearGradient id="XMLID_142_" gradientUnits="userSpaceOnUse" x1="727.5861" y1="112.0643" x2="790.556" y2="112.0643">
		<stop  offset="0" style="stop-color:#9B247D"/>
		<stop  offset="1" style="stop-color:#462F81"/>
	</linearGradient>
	<path id="XMLID_235_" fill="url(#XMLID_142_)" d="M790.1,122.8v-24h-52.4l-9.7,12.4v11.6c-0.3,0-0.4,0.3-0.4,0.6v1.4
		c0,0.3,0.3,0.6,0.6,0.6h9.9c0-2.4,1.9-4.4,4.4-4.4c2.4,0,4.4,2,4.4,4.4h25.5c0-2.4,1.9-4.4,4.4-4.4c2.4,0,4.3,2,4.3,4.4h8.9
		c0.3,0,0.6-0.3,0.6-0.6v-1.4C790.6,123.1,790.4,122.8,790.1,122.8z M738.1,111.2h-7.8l7.8-9.8V111.2z M739.8,111.2v-9.8h4.2v9.8
		H739.8z"/>
</g>
<linearGradient id="XMLID_143_" gradientUnits="userSpaceOnUse" x1="296.6816" y1="125.1847" x2="304.1284" y2="125.1847">
	<stop  offset="0" style="stop-color:#9B247D"/>
	<stop  offset="1" style="stop-color:#462F81"/>
</linearGradient>
<circle id="XMLID_233_" fill="url(#XMLID_143_)" cx="300.4" cy="125.2" r="3.7"/>
<linearGradient id="XMLID_144_" gradientUnits="userSpaceOnUse" x1="330.9366" y1="125.1847" x2="338.3833" y2="125.1847">
	<stop  offset="0" style="stop-color:#9B247D"/>
	<stop  offset="1" style="stop-color:#462F81"/>
</linearGradient>
<circle id="XMLID_232_" fill="url(#XMLID_144_)" cx="334.7" cy="125.2" r="3.7"/>
<g id="XMLID_227_">
	<linearGradient id="XMLID_145_" gradientUnits="userSpaceOnUse" x1="285.5904" y1="111.9518" x2="348.5604" y2="111.9518">
		<stop  offset="0" style="stop-color:#9B247D"/>
		<stop  offset="1" style="stop-color:#462F81"/>
	</linearGradient>
	<path id="XMLID_228_" fill="url(#XMLID_145_)" d="M348.1,122.7v-24h-52.4l-9.7,12.4v11.6c-0.3,0-0.4,0.3-0.4,0.6v1.4
		c0,0.3,0.3,0.6,0.6,0.6h9.9c0-2.4,1.9-4.4,4.4-4.4c2.4,0,4.4,2,4.4,4.4h25.5c0-2.4,1.9-4.4,4.4-4.4c2.4,0,4.3,2,4.3,4.4h8.9
		c0.3,0,0.6-0.3,0.6-0.6v-1.4C348.6,123,348.4,122.7,348.1,122.7z M296.1,111.1h-7.8l7.8-9.8V111.1z M297.8,111.1v-9.8h4.2v9.8
		H297.8z"/>
</g>
<linearGradient id="XMLID_146_" gradientUnits="userSpaceOnUse" x1="550.1434" y1="125.2524" x2="558.2684" y2="125.2524">
	<stop  offset="0" style="stop-color:#9B247D"/>
	<stop  offset="1" style="stop-color:#462F81"/>
</linearGradient>
<circle id="XMLID_226_" fill="url(#XMLID_146_)" cx="554.2" cy="125.3" r="4.1"/>
<linearGradient id="XMLID_147_" gradientUnits="userSpaceOnUse" x1="587.5184" y1="125.2524" x2="595.6434" y2="125.2524">
	<stop  offset="0" style="stop-color:#9B247D"/>
	<stop  offset="1" style="stop-color:#462F81"/>
</linearGradient>
<circle id="XMLID_225_" fill="url(#XMLID_147_)" cx="591.6" cy="125.3" r="4.1"/>
<g id="XMLID_220_">
	<linearGradient id="XMLID_148_" gradientUnits="userSpaceOnUse" x1="538.0384" y1="110.8124" x2="606.7484" y2="110.8124">
		<stop  offset="0" style="stop-color:#9B247D"/>
		<stop  offset="1" style="stop-color:#462F81"/>
	</linearGradient>
	<path id="XMLID_221_" fill="url(#XMLID_148_)" d="M606.3,122.5V96.4h-57.2l-10.5,13.5v12.6c-0.3,0.1-0.5,0.3-0.5,0.6v1.5
		c0,0.3,0.3,0.6,0.6,0.6h10.8c0-2.6,2.1-4.8,4.8-4.8s4.8,2.1,4.8,4.8h27.9c0-2.6,2.1-4.8,4.8-4.8s4.8,2.1,4.8,4.8h9.7
		c0.3,0,0.6-0.3,0.6-0.6v-1.5C606.7,122.8,606.5,122.6,606.3,122.5z M549.5,109.9H541l8.5-10.8V109.9z M562.8,109.9h-11.4V99.1h11.4
		V109.9z"/>
</g>
<linearGradient id="XMLID_149_" gradientUnits="userSpaceOnUse" x1="563.8718" y1="101.487" x2="606.2684" y2="101.487">
	<stop  offset="0" style="stop-color:#9B247D"/>
	<stop  offset="1" style="stop-color:#462F81"/>
</linearGradient>
<rect id="XMLID_219_" x="563.9" y="88.9" fill="url(#XMLID_149_)" width="42.4" height="25.2"/>
<linearGradient id="XMLID_150_" gradientUnits="userSpaceOnUse" x1="686.0161" y1="119.7993" x2="687.056" y2="119.7993">
	<stop  offset="0" style="stop-color:#9B247D"/>
	<stop  offset="1" style="stop-color:#462F81"/>
</linearGradient>
<polygon id="XMLID_218_" fill="url(#XMLID_150_)" points="687.1,119.5 687.1,120.1 686.3,120.1 686,119.5 "/>
<linearGradient id="XMLID_151_" gradientUnits="userSpaceOnUse" x1="475.5136" y1="125.8491" x2="480.8099" y2="125.8491">
	<stop  offset="0" style="stop-color:#9B247D"/>
	<stop  offset="1" style="stop-color:#462F81"/>
</linearGradient>
<circle id="XMLID_217_" fill="url(#XMLID_151_)" cx="478.2" cy="125.8" r="2.6"/>
<linearGradient id="XMLID_152_" gradientUnits="userSpaceOnUse" x1="499.8767" y1="125.8491" x2="505.173" y2="125.8491">
	<stop  offset="0" style="stop-color:#9B247D"/>
	<stop  offset="1" style="stop-color:#462F81"/>
</linearGradient>
<circle id="XMLID_216_" fill="url(#XMLID_152_)" cx="502.5" cy="125.8" r="2.6"/>
<g id="XMLID_209_">
	<linearGradient id="XMLID_153_" gradientUnits="userSpaceOnUse" x1="467.6262" y1="117.7864" x2="512.4162" y2="117.7864">
		<stop  offset="0" style="stop-color:#9B247D"/>
		<stop  offset="1" style="stop-color:#462F81"/>
	</linearGradient>
	<path id="XMLID_210_" fill="url(#XMLID_153_)" d="M512.1,124.1v-4.3h-0.8l-0.3-0.6l-3.8-9.4h-30.1l-4.5,9.4h-4.7v5
		c-0.2,0-0.3,0.2-0.3,0.4v1c0,0.2,0.2,0.4,0.4,0.4h7.1c0-1.7,1.4-3.1,3.1-3.1s3.1,1.4,3.1,3.1h18.2c0-1.7,1.4-3.1,3.1-3.1
		s3.1,1.4,3.1,3.1h6.3c0.2,0,0.4-0.2,0.4-0.4v-1C512.4,124.3,512.3,124.1,512.1,124.1z M509.3,117.8h-2.6l-0.3-7L509.3,117.8z
		 M493.5,110.8h9.2v7h-9.2V110.8z M481.2,110.8h8.8v7h-8.8V110.8z M478.8,110.8v7h-3.9L478.8,110.8z"/>
</g>
<linearGradient id="XMLID_154_" gradientUnits="userSpaceOnUse" x1="511.0562" y1="118.4114" x2="512.0961" y2="118.4114">
	<stop  offset="0" style="stop-color:#9B247D"/>
	<stop  offset="1" style="stop-color:#462F81"/>
</linearGradient>
<polygon id="XMLID_208_" fill="url(#XMLID_154_)" points="512.1,118.1 512.1,118.7 511.3,118.7 511.1,118.1 "/>
<linearGradient id="XMLID_155_" gradientUnits="userSpaceOnUse" x1="407.0136" y1="126.4612" x2="412.3099" y2="126.4612">
	<stop  offset="0" style="stop-color:#9B247D"/>
	<stop  offset="1" style="stop-color:#462F81"/>
</linearGradient>
<circle id="XMLID_207_" fill="url(#XMLID_155_)" cx="409.7" cy="126.5" r="2.6"/>
<linearGradient id="XMLID_156_" gradientUnits="userSpaceOnUse" x1="431.3767" y1="126.4612" x2="436.673" y2="126.4612">
	<stop  offset="0" style="stop-color:#9B247D"/>
	<stop  offset="1" style="stop-color:#462F81"/>
</linearGradient>
<circle id="XMLID_206_" fill="url(#XMLID_156_)" cx="434" cy="126.5" r="2.6"/>
<g id="XMLID_199_">
	<linearGradient id="XMLID_157_" gradientUnits="userSpaceOnUse" x1="399.1262" y1="118.3985" x2="443.9162" y2="118.3985">
		<stop  offset="0" style="stop-color:#9B247D"/>
		<stop  offset="1" style="stop-color:#462F81"/>
	</linearGradient>
	<path id="XMLID_200_" fill="url(#XMLID_157_)" d="M443.6,124.7v-4.3h-0.8l-0.3-0.6l-3.8-9.4h-30.1l-4.5,9.4h-4.7v5
		c-0.2,0-0.3,0.2-0.3,0.4v1c0,0.2,0.2,0.4,0.4,0.4h7.1c0-1.7,1.4-3.1,3.1-3.1s3.1,1.4,3.1,3.1H431c0-1.7,1.4-3.1,3.1-3.1
		s3.1,1.4,3.1,3.1h6.3c0.2,0,0.4-0.2,0.4-0.4v-1C443.9,124.9,443.8,124.7,443.6,124.7z M440.8,118.5h-2.6l-0.3-7L440.8,118.5z
		 M425,111.5h9.2v7H425V111.5z M412.7,111.5h8.8v7h-8.8V111.5z M410.3,111.5v7h-3.9L410.3,111.5z"/>
</g>
<linearGradient id="XMLID_158_" gradientUnits="userSpaceOnUse" x1="442.5562" y1="120.0235" x2="443.5961" y2="120.0235">
	<stop  offset="0" style="stop-color:#9B247D"/>
	<stop  offset="1" style="stop-color:#462F81"/>
</linearGradient>
<polygon id="XMLID_198_" fill="url(#XMLID_158_)" points="443.6,119.7 443.6,120.3 442.8,120.3 442.6,119.7 "/>
<linearGradient id="XMLID_159_" gradientUnits="userSpaceOnUse" x1="1418.2755" y1="124.7325" x2="1423.5719" y2="124.7325">
	<stop  offset="0" style="stop-color:#9B247D"/>
	<stop  offset="1" style="stop-color:#462F81"/>
</linearGradient>
<circle id="XMLID_117_" fill="url(#XMLID_159_)" cx="1420.9" cy="124.7" r="2.6"/>
<linearGradient id="XMLID_160_" gradientUnits="userSpaceOnUse" x1="1442.6387" y1="124.7325" x2="1447.9351" y2="124.7325">
	<stop  offset="0" style="stop-color:#9B247D"/>
	<stop  offset="1" style="stop-color:#462F81"/>
</linearGradient>
<circle id="XMLID_116_" fill="url(#XMLID_160_)" cx="1445.3" cy="124.7" r="2.6"/>
<g id="XMLID_107_">
	<linearGradient id="XMLID_161_" gradientUnits="userSpaceOnUse" x1="1410.3882" y1="116.6699" x2="1455.1782" y2="116.6699">
		<stop  offset="0" style="stop-color:#9B247D"/>
		<stop  offset="1" style="stop-color:#462F81"/>
	</linearGradient>
	<path id="XMLID_110_" fill="url(#XMLID_161_)" d="M1454.9,122.9v-4.3h-0.8l-0.3-0.6l-3.8-9.4h-30.1l-4.5,9.4h-4.7v5
		c-0.2,0-0.3,0.2-0.3,0.4v1c0,0.2,0.2,0.4,0.4,0.4h7.1c0-1.7,1.4-3.1,3.1-3.1s3.1,1.4,3.1,3.1h18.2c0-1.7,1.4-3.1,3.1-3.1
		s3.1,1.4,3.1,3.1h6.3c0.2,0,0.4-0.2,0.4-0.4v-1C1455.2,123.1,1455,123,1454.9,122.9z M1452.1,116.7h-2.6l-0.3-7L1452.1,116.7z
		 M1436.2,109.7h9.2v7h-9.2V109.7z M1423.9,109.7h8.8v7h-8.8V109.7z M1421.6,109.7v7h-3.9L1421.6,109.7z"/>
</g>
<linearGradient id="XMLID_280_" gradientUnits="userSpaceOnUse" x1="1486.4794" y1="123.7927" x2="1493.926" y2="123.7927">
	<stop  offset="0" style="stop-color:#9B247D"/>
	<stop  offset="1" style="stop-color:#462F81"/>
</linearGradient>
<circle id="XMLID_106_" fill="url(#XMLID_280_)" cx="1490.2" cy="123.8" r="3.7"/>
<linearGradient id="XMLID_281_" gradientUnits="userSpaceOnUse" x1="1520.7344" y1="123.7927" x2="1528.181" y2="123.7927">
	<stop  offset="0" style="stop-color:#9B247D"/>
	<stop  offset="1" style="stop-color:#462F81"/>
</linearGradient>
<circle id="XMLID_105_" fill="url(#XMLID_281_)" cx="1524.5" cy="123.8" r="3.7"/>
<g id="XMLID_100_">
	<linearGradient id="XMLID_282_" gradientUnits="userSpaceOnUse" x1="1475.3882" y1="110.5598" x2="1538.3582" y2="110.5598">
		<stop  offset="0" style="stop-color:#9B247D"/>
		<stop  offset="1" style="stop-color:#462F81"/>
	</linearGradient>
	<path id="XMLID_101_" fill="url(#XMLID_282_)" d="M1537.9,121.3v-24h-52.4l-9.7,12.4v11.6c-0.3,0-0.4,0.3-0.4,0.6v1.4
		c0,0.3,0.3,0.6,0.6,0.6h9.9c0-2.4,1.9-4.4,4.4-4.4c2.4,0,4.4,2,4.4,4.4h25.5c0-2.4,1.9-4.4,4.4-4.4c2.4,0,4.3,2,4.3,4.4h8.9
		c0.3,0,0.6-0.3,0.6-0.6v-1.4C1538.4,121.6,1538.2,121.3,1537.9,121.3z M1485.9,109.7h-7.8l7.8-9.8V109.7z M1487.6,109.7v-9.8h4.2
		v9.8H1487.6z"/>
</g>
<linearGradient id="XMLID_283_" gradientUnits="userSpaceOnUse" x1="1166.4794" y1="123.6542" x2="1173.926" y2="123.6542">
	<stop  offset="0" style="stop-color:#9B247D"/>
	<stop  offset="1" style="stop-color:#462F81"/>
</linearGradient>
<circle id="XMLID_99_" fill="url(#XMLID_283_)" cx="1170.2" cy="123.7" r="3.7"/>
<linearGradient id="XMLID_284_" gradientUnits="userSpaceOnUse" x1="1200.7344" y1="123.6542" x2="1208.181" y2="123.6542">
	<stop  offset="0" style="stop-color:#9B247D"/>
	<stop  offset="1" style="stop-color:#462F81"/>
</linearGradient>
<circle id="XMLID_98_" fill="url(#XMLID_284_)" cx="1204.5" cy="123.7" r="3.7"/>
<g id="XMLID_84_">
	<linearGradient id="XMLID_285_" gradientUnits="userSpaceOnUse" x1="1155.3882" y1="110.4213" x2="1218.3582" y2="110.4213">
		<stop  offset="0" style="stop-color:#9B247D"/>
		<stop  offset="1" style="stop-color:#462F81"/>
	</linearGradient>
	<path id="XMLID_91_" fill="url(#XMLID_285_)" d="M1217.9,121.1v-24h-52.4l-9.7,12.4v11.6c-0.3,0-0.4,0.3-0.4,0.6v1.4
		c0,0.3,0.3,0.6,0.6,0.6h9.9c0-2.4,1.9-4.4,4.4-4.4c2.4,0,4.4,2,4.4,4.4h25.5c0-2.4,1.9-4.4,4.4-4.4c2.4,0,4.3,2,4.3,4.4h8.9
		c0.3,0,0.6-0.3,0.6-0.6v-1.4C1218.4,121.4,1218.2,121.2,1217.9,121.1z M1165.9,109.6h-7.8l7.8-9.8V109.6z M1167.6,109.6v-9.8h4.2
		v9.8H1167.6z"/>
</g>
<linearGradient id="XMLID_286_" gradientUnits="userSpaceOnUse" x1="1340.9454" y1="123.748" x2="1349.0704" y2="123.748">
	<stop  offset="0" style="stop-color:#9B247D"/>
	<stop  offset="1" style="stop-color:#462F81"/>
</linearGradient>
<circle id="XMLID_83_" fill="url(#XMLID_286_)" cx="1345" cy="123.7" r="4.1"/>
<linearGradient id="XMLID_287_" gradientUnits="userSpaceOnUse" x1="1378.3204" y1="123.748" x2="1386.4454" y2="123.748">
	<stop  offset="0" style="stop-color:#9B247D"/>
	<stop  offset="1" style="stop-color:#462F81"/>
</linearGradient>
<circle id="XMLID_82_" fill="url(#XMLID_287_)" cx="1382.4" cy="123.7" r="4.1"/>
<g id="XMLID_77_">
	<linearGradient id="XMLID_295_" gradientUnits="userSpaceOnUse" x1="1328.8405" y1="109.308" x2="1397.5504" y2="109.308">
		<stop  offset="0" style="stop-color:#9B247D"/>
		<stop  offset="1" style="stop-color:#462F81"/>
	</linearGradient>
	<path id="XMLID_78_" fill="url(#XMLID_295_)" d="M1397.1,121V94.9h-57.2l-10.5,13.5V121c-0.3,0.1-0.5,0.3-0.5,0.6v1.5
		c0,0.3,0.3,0.6,0.6,0.6h10.8c0-2.6,2.1-4.8,4.8-4.8s4.8,2.1,4.8,4.8h27.9c0-2.6,2.1-4.8,4.8-4.8s4.8,2.1,4.8,4.8h9.7
		c0.3,0,0.6-0.3,0.6-0.6v-1.5C1397.6,121.3,1397.4,121.1,1397.1,121z M1340.3,108.4h-8.5l8.5-10.8V108.4z M1353.6,108.4h-11.4V97.6
		h11.4V108.4z"/>
</g>
<linearGradient id="XMLID_296_" gradientUnits="userSpaceOnUse" x1="1354.6738" y1="99.9826" x2="1397.0704" y2="99.9826">
	<stop  offset="0" style="stop-color:#9B247D"/>
	<stop  offset="1" style="stop-color:#462F81"/>
</linearGradient>
<rect id="XMLID_76_" x="1354.7" y="87.4" fill="url(#XMLID_296_)" width="42.4" height="25.2"/>
<linearGradient id="XMLID_297_" gradientUnits="userSpaceOnUse" x1="1453.8182" y1="118.2949" x2="1454.8582" y2="118.2949">
	<stop  offset="0" style="stop-color:#9B247D"/>
	<stop  offset="1" style="stop-color:#462F81"/>
</linearGradient>
<polygon id="XMLID_75_" fill="url(#XMLID_297_)" points="1454.9,118 1454.9,118.6 1454.1,118.6 1453.8,118 "/>
<linearGradient id="XMLID_298_" gradientUnits="userSpaceOnUse" x1="1562.5006" y1="125.2588" x2="1567.7969" y2="125.2588">
	<stop  offset="0" style="stop-color:#9B247D"/>
	<stop  offset="1" style="stop-color:#462F81"/>
</linearGradient>
<circle id="XMLID_162_" fill="url(#XMLID_298_)" cx="1565.1" cy="125.3" r="2.6"/>
<linearGradient id="XMLID_299_" gradientUnits="userSpaceOnUse" x1="1586.8636" y1="125.2588" x2="1592.16" y2="125.2588">
	<stop  offset="0" style="stop-color:#9B247D"/>
	<stop  offset="1" style="stop-color:#462F81"/>
</linearGradient>
<circle id="XMLID_126_" fill="url(#XMLID_299_)" cx="1589.5" cy="125.3" r="2.6"/>
<g id="XMLID_119_">
	<linearGradient id="XMLID_300_" gradientUnits="userSpaceOnUse" x1="1554.6132" y1="117.1961" x2="1599.4032" y2="117.1961">
		<stop  offset="0" style="stop-color:#9B247D"/>
		<stop  offset="1" style="stop-color:#462F81"/>
	</linearGradient>
	<path id="XMLID_120_" fill="url(#XMLID_300_)" d="M1599.1,123.5v-4.3h-0.8l-0.3-0.6l-3.8-9.4h-30.1l-4.5,9.4h-4.7v5
		c-0.2,0-0.3,0.2-0.3,0.4v1c0,0.2,0.2,0.4,0.4,0.4h7.1c0-1.7,1.4-3.1,3.1-3.1s3.1,1.4,3.1,3.1h18.2c0-1.7,1.4-3.1,3.1-3.1
		s3.1,1.4,3.1,3.1h6.3c0.2,0,0.4-0.2,0.4-0.4v-1C1599.4,123.7,1599.3,123.5,1599.1,123.5z M1596.3,117.3h-2.6l-0.3-7L1596.3,117.3z
		 M1580.5,110.3h9.2v7h-9.2V110.3z M1568.2,110.3h8.8v7h-8.8V110.3z M1565.8,110.3v7h-3.9L1565.8,110.3z"/>
</g>
<linearGradient id="XMLID_301_" gradientUnits="userSpaceOnUse" x1="1598.0432" y1="118.8211" x2="1599.0831" y2="118.8211">
	<stop  offset="0" style="stop-color:#9B247D"/>
	<stop  offset="1" style="stop-color:#462F81"/>
</linearGradient>
<polygon id="XMLID_118_" fill="url(#XMLID_301_)" points="1599.1,118.5 1599.1,119.1 1598.3,119.1 1598,118.5 "/>
<linearGradient id="XMLID_302_" gradientUnits="userSpaceOnUse" x1="944.4238" y1="124.7107" x2="949.7201" y2="124.7107">
	<stop  offset="0" style="stop-color:#9B247D"/>
	<stop  offset="1" style="stop-color:#462F81"/>
</linearGradient>
<circle id="XMLID_197_" fill="url(#XMLID_302_)" cx="947.1" cy="124.7" r="2.6"/>
<linearGradient id="XMLID_303_" gradientUnits="userSpaceOnUse" x1="968.7869" y1="124.7107" x2="974.0833" y2="124.7107">
	<stop  offset="0" style="stop-color:#9B247D"/>
	<stop  offset="1" style="stop-color:#462F81"/>
</linearGradient>
<circle id="XMLID_196_" fill="url(#XMLID_303_)" cx="971.4" cy="124.7" r="2.6"/>
<g id="XMLID_189_">
	<linearGradient id="XMLID_304_" gradientUnits="userSpaceOnUse" x1="936.5364" y1="116.6481" x2="981.3264" y2="116.6481">
		<stop  offset="0" style="stop-color:#9B247D"/>
		<stop  offset="1" style="stop-color:#462F81"/>
	</linearGradient>
	<path id="XMLID_190_" fill="url(#XMLID_304_)" d="M981,122.9v-4.3h-0.8L980,118l-3.8-9.4H946l-4.5,9.4h-4.7v5
		c-0.2,0-0.3,0.2-0.3,0.4v1c0,0.2,0.2,0.4,0.4,0.4h7.1c0-1.7,1.4-3.1,3.1-3.1s3.1,1.4,3.1,3.1h18.2c0-1.7,1.4-3.1,3.1-3.1
		s3.1,1.4,3.1,3.1h6.3c0.2,0,0.4-0.2,0.4-0.4v-1C981.3,123.1,981.2,123,981,122.9z M978.2,116.7h-2.6l-0.3-7L978.2,116.7z
		 M962.4,109.7h9.2v7h-9.2V109.7z M950.1,109.7h8.8v7h-8.8V109.7z M947.7,109.7v7h-3.9L947.7,109.7z"/>
</g>
<linearGradient id="XMLID_305_" gradientUnits="userSpaceOnUse" x1="1027.6276" y1="123.771" x2="1035.0743" y2="123.771">
	<stop  offset="0" style="stop-color:#9B247D"/>
	<stop  offset="1" style="stop-color:#462F81"/>
</linearGradient>
<circle id="XMLID_188_" fill="url(#XMLID_305_)" cx="1031.4" cy="123.8" r="3.7"/>
<linearGradient id="XMLID_306_" gradientUnits="userSpaceOnUse" x1="1061.8826" y1="123.771" x2="1069.3292" y2="123.771">
	<stop  offset="0" style="stop-color:#9B247D"/>
	<stop  offset="1" style="stop-color:#462F81"/>
</linearGradient>
<circle id="XMLID_187_" fill="url(#XMLID_306_)" cx="1065.6" cy="123.8" r="3.7"/>
<g id="XMLID_182_">
	<linearGradient id="XMLID_307_" gradientUnits="userSpaceOnUse" x1="1016.5364" y1="110.5381" x2="1079.5063" y2="110.5381">
		<stop  offset="0" style="stop-color:#9B247D"/>
		<stop  offset="1" style="stop-color:#462F81"/>
	</linearGradient>
	<path id="XMLID_183_" fill="url(#XMLID_307_)" d="M1079.1,121.3v-24h-52.4l-9.7,12.4v11.6c-0.3,0-0.4,0.3-0.4,0.6v1.4
		c0,0.3,0.3,0.6,0.6,0.6h9.9c0-2.4,1.9-4.4,4.4-4.4c2.4,0,4.4,2,4.4,4.4h25.5c0-2.4,1.9-4.4,4.4-4.4c2.4,0,4.3,2,4.3,4.4h8.9
		c0.3,0,0.6-0.3,0.6-0.6v-1.4C1079.5,121.5,1079.3,121.3,1079.1,121.3z M1027.1,109.7h-7.8l7.8-9.8V109.7z M1028.7,109.7v-9.8h4.2
		v9.8H1028.7z"/>
</g>
<linearGradient id="XMLID_308_" gradientUnits="userSpaceOnUse" x1="856.0937" y1="123.7262" x2="864.2187" y2="123.7262">
	<stop  offset="0" style="stop-color:#9B247D"/>
	<stop  offset="1" style="stop-color:#462F81"/>
</linearGradient>
<circle id="XMLID_181_" fill="url(#XMLID_308_)" cx="860.2" cy="123.7" r="4.1"/>
<linearGradient id="XMLID_309_" gradientUnits="userSpaceOnUse" x1="893.4687" y1="123.7262" x2="901.5937" y2="123.7262">
	<stop  offset="0" style="stop-color:#9B247D"/>
	<stop  offset="1" style="stop-color:#462F81"/>
</linearGradient>
<circle id="XMLID_180_" fill="url(#XMLID_309_)" cx="897.5" cy="123.7" r="4.1"/>
<g id="XMLID_175_">
	<linearGradient id="XMLID_310_" gradientUnits="userSpaceOnUse" x1="843.9887" y1="109.2862" x2="912.6987" y2="109.2862">
		<stop  offset="0" style="stop-color:#9B247D"/>
		<stop  offset="1" style="stop-color:#462F81"/>
	</linearGradient>
	<path id="XMLID_176_" fill="url(#XMLID_310_)" d="M912.2,121V94.8H855l-10.5,13.5V121c-0.3,0.1-0.5,0.3-0.5,0.6v1.5
		c0,0.3,0.3,0.6,0.6,0.6h10.8c0-2.6,2.1-4.8,4.8-4.8s4.8,2.1,4.8,4.8h27.9c0-2.6,2.1-4.8,4.8-4.8s4.8,2.1,4.8,4.8h9.7
		c0.3,0,0.6-0.3,0.6-0.6v-1.5C912.7,121.3,912.5,121,912.2,121z M855.5,108.3H847l8.5-10.8V108.3z M868.7,108.3h-11.4V97.6h11.4
		V108.3z"/>
</g>
<linearGradient id="XMLID_311_" gradientUnits="userSpaceOnUse" x1="869.8221" y1="99.9608" x2="912.2187" y2="99.9608">
	<stop  offset="0" style="stop-color:#9B247D"/>
	<stop  offset="1" style="stop-color:#462F81"/>
</linearGradient>
<rect id="XMLID_174_" x="869.8" y="87.4" fill="url(#XMLID_311_)" width="42.4" height="25.2"/>
<linearGradient id="XMLID_312_" gradientUnits="userSpaceOnUse" x1="979.9664" y1="118.2731" x2="981.0063" y2="118.2731">
	<stop  offset="0" style="stop-color:#9B247D"/>
	<stop  offset="1" style="stop-color:#462F81"/>
</linearGradient>
<polygon id="XMLID_173_" fill="url(#XMLID_312_)" points="981,118 981,118.6 980.2,118.6 980,118 "/>
<linearGradient id="XMLID_313_" gradientUnits="userSpaceOnUse" x1="1103.6488" y1="125.237" x2="1108.9452" y2="125.237">
	<stop  offset="0" style="stop-color:#9B247D"/>
	<stop  offset="1" style="stop-color:#462F81"/>
</linearGradient>
<circle id="XMLID_172_" fill="url(#XMLID_313_)" cx="1106.3" cy="125.2" r="2.6"/>
<linearGradient id="XMLID_314_" gradientUnits="userSpaceOnUse" x1="1128.012" y1="125.237" x2="1133.3082" y2="125.237">
	<stop  offset="0" style="stop-color:#9B247D"/>
	<stop  offset="1" style="stop-color:#462F81"/>
</linearGradient>
<circle id="XMLID_171_" fill="url(#XMLID_314_)" cx="1130.7" cy="125.2" r="2.6"/>
<g id="XMLID_164_">
	<linearGradient id="XMLID_315_" gradientUnits="userSpaceOnUse" x1="1095.7614" y1="117.1743" x2="1140.5514" y2="117.1743">
		<stop  offset="0" style="stop-color:#9B247D"/>
		<stop  offset="1" style="stop-color:#462F81"/>
	</linearGradient>
	<path id="XMLID_165_" fill="url(#XMLID_315_)" d="M1140.2,123.4v-4.3h-0.8l-0.3-0.6l-3.8-9.4h-30.1l-4.5,9.4h-4.7v5
		c-0.2,0-0.3,0.2-0.3,0.4v1c0,0.2,0.2,0.4,0.4,0.4h7.1c0-1.7,1.4-3.1,3.1-3.1s3.1,1.4,3.1,3.1h18.2c0-1.7,1.4-3.1,3.1-3.1
		s3.1,1.4,3.1,3.1h6.3c0.2,0,0.4-0.2,0.4-0.4v-1C1140.6,123.6,1140.4,123.5,1140.2,123.4z M1137.4,117.2h-2.6l-0.3-7L1137.4,117.2z
		 M1121.6,110.2h9.2v7h-9.2V110.2z M1109.3,110.2h8.8v7h-8.8V110.2z M1106.9,110.2v7h-3.9L1106.9,110.2z"/>
</g>
<linearGradient id="XMLID_316_" gradientUnits="userSpaceOnUse" x1="1139.1914" y1="118.7993" x2="1140.2313" y2="118.7993">
	<stop  offset="0" style="stop-color:#9B247D"/>
	<stop  offset="1" style="stop-color:#462F81"/>
</linearGradient>
<polygon id="XMLID_163_" fill="url(#XMLID_316_)" points="1140.2,118.5 1140.2,119.1 1139.4,119.1 1139.2,118.5 "/>
<linearGradient id="XMLID_317_" gradientUnits="userSpaceOnUse" x1="1284.3157" y1="124.3446" x2="1289.6119" y2="124.3446">
	<stop  offset="0" style="stop-color:#9B247D"/>
	<stop  offset="1" style="stop-color:#462F81"/>
</linearGradient>
<circle id="XMLID_74_" fill="url(#XMLID_317_)" cx="1287" cy="124.3" r="2.6"/>
<linearGradient id="XMLID_318_" gradientUnits="userSpaceOnUse" x1="1308.6787" y1="124.3446" x2="1313.9751" y2="124.3446">
	<stop  offset="0" style="stop-color:#9B247D"/>
	<stop  offset="1" style="stop-color:#462F81"/>
</linearGradient>
<circle id="XMLID_73_" fill="url(#XMLID_318_)" cx="1311.3" cy="124.3" r="2.6"/>
<g id="XMLID_66_">
	<linearGradient id="XMLID_319_" gradientUnits="userSpaceOnUse" x1="1276.4282" y1="116.2819" x2="1321.2183" y2="116.2819">
		<stop  offset="0" style="stop-color:#9B247D"/>
		<stop  offset="1" style="stop-color:#462F81"/>
	</linearGradient>
	<path id="XMLID_67_" fill="url(#XMLID_319_)" d="M1320.9,122.6v-4.3h-0.8l-0.3-0.6l-3.8-9.4h-30.1l-4.5,9.4h-4.7v5
		c-0.2,0-0.3,0.2-0.3,0.4v1c0,0.2,0.2,0.4,0.4,0.4h7.1c0-1.7,1.4-3.1,3.1-3.1s3.1,1.4,3.1,3.1h18.2c0-1.7,1.4-3.1,3.1-3.1
		s3.1,1.4,3.1,3.1h6.3c0.2,0,0.4-0.2,0.4-0.4v-1C1321.2,122.8,1321.1,122.6,1320.9,122.6z M1318.1,116.3h-2.6l-0.3-7L1318.1,116.3z
		 M1302.3,109.3h9.2v7h-9.2V109.3z M1290,109.3h8.8v7h-8.8V109.3z M1287.6,109.3v7h-3.9L1287.6,109.3z"/>
</g>
<linearGradient id="XMLID_320_" gradientUnits="userSpaceOnUse" x1="1319.8583" y1="116.9069" x2="1320.8982" y2="116.9069">
	<stop  offset="0" style="stop-color:#9B247D"/>
	<stop  offset="1" style="stop-color:#462F81"/>
</linearGradient>
<polygon id="XMLID_65_" fill="url(#XMLID_320_)" points="1320.9,116.6 1320.9,117.2 1320.1,117.2 1319.9,116.6 "/>
<linearGradient id="XMLID_321_" gradientUnits="userSpaceOnUse" x1="1235.8157" y1="124.9567" x2="1241.1119" y2="124.9567">
	<stop  offset="0" style="stop-color:#9B247D"/>
	<stop  offset="1" style="stop-color:#462F81"/>
</linearGradient>
<circle id="XMLID_64_" fill="url(#XMLID_321_)" cx="1238.5" cy="125" r="2.6"/>
<linearGradient id="XMLID_322_" gradientUnits="userSpaceOnUse" x1="1260.1787" y1="124.9567" x2="1265.4751" y2="124.9567">
	<stop  offset="0" style="stop-color:#9B247D"/>
	<stop  offset="1" style="stop-color:#462F81"/>
</linearGradient>
<circle id="XMLID_63_" fill="url(#XMLID_322_)" cx="1262.8" cy="125" r="2.6"/>
<g id="XMLID_56_">
	<linearGradient id="XMLID_323_" gradientUnits="userSpaceOnUse" x1="1227.9282" y1="116.894" x2="1272.7183" y2="116.894">
		<stop  offset="0" style="stop-color:#9B247D"/>
		<stop  offset="1" style="stop-color:#462F81"/>
	</linearGradient>
	<path id="XMLID_57_" fill="url(#XMLID_323_)" d="M1272.4,123.2v-4.3h-0.8l-0.3-0.6l-3.8-9.4h-30.1l-4.5,9.4h-4.7v5
		c-0.2,0-0.3,0.2-0.3,0.4v1c0,0.2,0.2,0.4,0.4,0.4h7.1c0-1.7,1.4-3.1,3.1-3.1s3.1,1.4,3.1,3.1h18.2c0-1.7,1.4-3.1,3.1-3.1
		s3.1,1.4,3.1,3.1h6.3c0.2,0,0.4-0.2,0.4-0.4v-1C1272.7,123.4,1272.6,123.2,1272.4,123.2z M1269.6,116.9h-2.6l-0.3-7L1269.6,116.9z
		 M1253.8,109.9h9.2v7h-9.2V109.9z M1241.5,109.9h8.8v7h-8.8V109.9z M1239.1,109.9v7h-3.9L1239.1,109.9z"/>
</g>
<linearGradient id="XMLID_324_" gradientUnits="userSpaceOnUse" x1="1271.3583" y1="118.519" x2="1272.3982" y2="118.519">
	<stop  offset="0" style="stop-color:#9B247D"/>
	<stop  offset="1" style="stop-color:#462F81"/>
</linearGradient>
<polygon id="XMLID_55_" fill="url(#XMLID_324_)" points="1272.4,118.2 1272.4,118.8 1271.6,118.8 1271.4,118.2 "/>
<linearGradient id="XMLID_325_" gradientUnits="userSpaceOnUse" x1="73.944" y1="124.7334" x2="81.3907" y2="124.7334">
	<stop  offset="0" style="stop-color:#9B247D"/>
	<stop  offset="1" style="stop-color:#462F81"/>
</linearGradient>
<circle id="XMLID_294_" fill="url(#XMLID_325_)" cx="77.7" cy="124.7" r="3.7"/>
<linearGradient id="XMLID_326_" gradientUnits="userSpaceOnUse" x1="108.199" y1="124.7334" x2="115.6457" y2="124.7334">
	<stop  offset="0" style="stop-color:#9B247D"/>
	<stop  offset="1" style="stop-color:#462F81"/>
</linearGradient>
<circle id="XMLID_293_" fill="url(#XMLID_326_)" cx="111.9" cy="124.7" r="3.7"/>
<g id="XMLID_288_">
	<linearGradient id="XMLID_327_" gradientUnits="userSpaceOnUse" x1="62.8528" y1="111.5005" x2="125.8227" y2="111.5005">
		<stop  offset="0" style="stop-color:#9B247D"/>
		<stop  offset="1" style="stop-color:#462F81"/>
	</linearGradient>
	<path id="XMLID_289_" fill="url(#XMLID_327_)" d="M125.4,122.2v-24H73l-9.7,12.4v11.6c-0.3,0-0.4,0.3-0.4,0.6v1.4
		c0,0.3,0.3,0.6,0.6,0.6h9.9c0-2.4,1.9-4.4,4.4-4.4c2.4,0,4.4,2,4.4,4.4h25.5c0-2.4,1.9-4.4,4.4-4.4c2.4,0,4.3,2,4.3,4.4h8.9
		c0.3,0,0.6-0.3,0.6-0.6v-1.4C125.8,122.5,125.6,122.3,125.4,122.2z M73.4,110.6h-7.8l7.8-9.8V110.6z M75.1,110.6v-9.8h4.2v9.8H75.1
		z"/>
</g>
<linearGradient id="XMLID_328_" gradientUnits="userSpaceOnUse" x1="11.1135" y1="126.3162" x2="16.4098" y2="126.3162">
	<stop  offset="0" style="stop-color:#9B247D"/>
	<stop  offset="1" style="stop-color:#462F81"/>
</linearGradient>
<circle id="XMLID_279_" fill="url(#XMLID_328_)" cx="13.8" cy="126.3" r="2.6"/>
<linearGradient id="XMLID_329_" gradientUnits="userSpaceOnUse" x1="35.4766" y1="126.3162" x2="40.7729" y2="126.3162">
	<stop  offset="0" style="stop-color:#9B247D"/>
	<stop  offset="1" style="stop-color:#462F81"/>
</linearGradient>
<circle id="XMLID_278_" fill="url(#XMLID_329_)" cx="38.1" cy="126.3" r="2.6"/>
<g id="XMLID_271_">
	<linearGradient id="XMLID_330_" gradientUnits="userSpaceOnUse" x1="3.226" y1="118.2535" x2="48.0161" y2="118.2535">
		<stop  offset="0" style="stop-color:#9B247D"/>
		<stop  offset="1" style="stop-color:#462F81"/>
	</linearGradient>
	<path id="XMLID_272_" fill="url(#XMLID_330_)" d="M47.7,124.5v-4.3h-0.8l-0.3-0.6l-3.8-9.4H12.7l-4.5,9.4H3.5v5
		c-0.2,0-0.3,0.2-0.3,0.4v1c0,0.2,0.2,0.4,0.4,0.4h7.1c0-1.7,1.4-3.1,3.1-3.1s3.1,1.4,3.1,3.1h18.2c0-1.7,1.4-3.1,3.1-3.1
		s3.1,1.4,3.1,3.1h6.3c0.2,0,0.4-0.2,0.4-0.4v-1C48,124.7,47.9,124.6,47.7,124.5z M44.9,118.3h-2.6l-0.3-7L44.9,118.3z M29.1,111.3
		h9.2v7h-9.2V111.3z M16.8,111.3h8.8v7h-8.8V111.3z M14.4,111.3v7h-3.9L14.4,111.3z"/>
</g>
<linearGradient id="XMLID_331_" gradientUnits="userSpaceOnUse" x1="46.6561" y1="119.8785" x2="47.696" y2="119.8785">
	<stop  offset="0" style="stop-color:#9B247D"/>
	<stop  offset="1" style="stop-color:#462F81"/>
</linearGradient>
<polygon id="XMLID_270_" fill="url(#XMLID_331_)" points="47.7,119.6 47.7,120.2 46.9,120.2 46.7,119.6 "/>
<linearGradient id="XMLID_332_" gradientUnits="userSpaceOnUse" x1="213.7803" y1="125.4238" x2="219.0766" y2="125.4238">
	<stop  offset="0" style="stop-color:#9B247D"/>
	<stop  offset="1" style="stop-color:#462F81"/>
</linearGradient>
<circle id="XMLID_269_" fill="url(#XMLID_332_)" cx="216.4" cy="125.4" r="2.6"/>
<linearGradient id="XMLID_333_" gradientUnits="userSpaceOnUse" x1="238.1434" y1="125.4238" x2="243.4397" y2="125.4238">
	<stop  offset="0" style="stop-color:#9B247D"/>
	<stop  offset="1" style="stop-color:#462F81"/>
</linearGradient>
<circle id="XMLID_268_" fill="url(#XMLID_333_)" cx="240.8" cy="125.4" r="2.6"/>
<g id="XMLID_261_">
	<linearGradient id="XMLID_334_" gradientUnits="userSpaceOnUse" x1="205.8928" y1="117.3611" x2="250.6829" y2="117.3611">
		<stop  offset="0" style="stop-color:#9B247D"/>
		<stop  offset="1" style="stop-color:#462F81"/>
	</linearGradient>
	<path id="XMLID_262_" fill="url(#XMLID_334_)" d="M250.4,123.6v-4.3h-0.8l-0.3-0.6l-3.8-9.4h-30.1l-4.5,9.4h-4.7v5
		c-0.2,0-0.3,0.2-0.3,0.4v1c0,0.2,0.2,0.4,0.4,0.4h7.1c0-1.7,1.4-3.1,3.1-3.1s3.1,1.4,3.1,3.1h18.2c0-1.7,1.4-3.1,3.1-3.1
		s3.1,1.4,3.1,3.1h6.3c0.2,0,0.4-0.2,0.4-0.4v-1C250.7,123.8,250.6,123.7,250.4,123.6z M247.6,117.4H245l-0.3-7L247.6,117.4z
		 M231.7,110.4h9.2v7h-9.2V110.4z M219.5,110.4h8.8v7h-8.8V110.4z M217.1,110.4v7h-3.9L217.1,110.4z"/>
</g>
<linearGradient id="XMLID_335_" gradientUnits="userSpaceOnUse" x1="249.3229" y1="117.9861" x2="250.3628" y2="117.9861">
	<stop  offset="0" style="stop-color:#9B247D"/>
	<stop  offset="1" style="stop-color:#462F81"/>
</linearGradient>
<polygon id="XMLID_260_" fill="url(#XMLID_335_)" points="250.4,117.7 250.4,118.3 249.6,118.3 249.3,117.7 "/>
<linearGradient id="XMLID_336_" gradientUnits="userSpaceOnUse" x1="143.2803" y1="126.0359" x2="148.5766" y2="126.0359">
	<stop  offset="0" style="stop-color:#9B247D"/>
	<stop  offset="1" style="stop-color:#462F81"/>
</linearGradient>
<circle id="XMLID_259_" fill="url(#XMLID_336_)" cx="145.9" cy="126" r="2.6"/>
<linearGradient id="XMLID_337_" gradientUnits="userSpaceOnUse" x1="167.6434" y1="126.0359" x2="172.9397" y2="126.0359">
	<stop  offset="0" style="stop-color:#9B247D"/>
	<stop  offset="1" style="stop-color:#462F81"/>
</linearGradient>
<circle id="XMLID_258_" fill="url(#XMLID_337_)" cx="170.3" cy="126" r="2.6"/>
<g id="XMLID_251_">
	<linearGradient id="XMLID_338_" gradientUnits="userSpaceOnUse" x1="135.3928" y1="117.9732" x2="180.1829" y2="117.9732">
		<stop  offset="0" style="stop-color:#9B247D"/>
		<stop  offset="1" style="stop-color:#462F81"/>
	</linearGradient>
	<path id="XMLID_252_" fill="url(#XMLID_338_)" d="M179.9,124.2v-4.3h-0.8l-0.3-0.6l-3.8-9.4h-30.1l-4.5,9.4h-4.7v5
		c-0.2,0-0.3,0.2-0.3,0.4v1c0,0.2,0.2,0.4,0.4,0.4h7.1c0-1.7,1.4-3.1,3.1-3.1s3.1,1.4,3.1,3.1h18.2c0-1.7,1.4-3.1,3.1-3.1
		s3.1,1.4,3.1,3.1h6.3c0.2,0,0.4-0.2,0.4-0.4v-1C180.2,124.4,180.1,124.3,179.9,124.2z M177.1,118h-2.6l-0.3-7L177.1,118z
		 M161.2,111h9.2v7h-9.2V111z M149,111h8.8v7H149V111z M146.6,111v7h-3.9L146.6,111z"/>
</g>
<linearGradient id="XMLID_339_" gradientUnits="userSpaceOnUse" x1="178.8229" y1="119.5982" x2="179.8628" y2="119.5982">
	<stop  offset="0" style="stop-color:#9B247D"/>
	<stop  offset="1" style="stop-color:#462F81"/>
</linearGradient>
<polygon id="XMLID_250_" fill="url(#XMLID_339_)" points="179.9,119.3 179.9,119.9 179.1,119.9 178.8,119.3 "/>
</svg>
