<?xml version="1.0" encoding="utf-8"?>
<!-- Generator: Adobe Illustrator 19.0.0, SVG Export Plug-In . SVG Version: 6.00 Build 0)  -->
<svg version="1.1" id="Layer_1" xmlns="http://www.w3.org/2000/svg" xmlns:xlink="http://www.w3.org/1999/xlink" x="0px" y="0px"
	 viewBox="0 0 2000 150" enable-background="new 0 0 2000 150" xml:space="preserve">
<linearGradient id="XMLID_2_" gradientUnits="userSpaceOnUse" x1="820.5297" y1="140.0673" x2="821.3229" y2="140.0673">
	<stop  offset="0" style="stop-color:#9B247D"/>
	<stop  offset="1" style="stop-color:#462F81"/>
</linearGradient>
<path id="XMLID_87_" fill="url(#XMLID_2_)" d="M820.9,152.5L820.9,152.5c-0.2,0-0.4-0.2-0.4-0.4V128c0-0.2,0.2-0.4,0.4-0.4l0,0
	c0.2,0,0.4,0.2,0.4,0.4v24.2C821.3,152.4,821.1,152.5,820.9,152.5z"/>
<linearGradient id="XMLID_3_" gradientUnits="userSpaceOnUse" x1="813.5242" y1="124.1413" x2="828.3284" y2="124.1413">
	<stop  offset="0" style="stop-color:#9B247D"/>
	<stop  offset="1" style="stop-color:#462F81"/>
</linearGradient>
<polygon id="XMLID_86_" fill="url(#XMLID_3_)" points="817.9,129.1 813.5,126.2 813.5,122.1 817.9,119.2 824,119.2 828.3,122.1 
	828.3,126.2 824,129.1 "/>
<linearGradient id="XMLID_4_" gradientUnits="userSpaceOnUse" x1="819.84" y1="124.1413" x2="827.7094" y2="124.1413">
	<stop  offset="0" style="stop-color:#9B247D"/>
	<stop  offset="1" style="stop-color:#462F81"/>
</linearGradient>
<polygon id="XMLID_85_" fill="url(#XMLID_4_)" points="822.1,128 819.8,125.8 819.8,122.5 822.1,120.2 825.4,120.2 827.7,122.5 
	827.7,125.8 825.4,128 "/>
<linearGradient id="XMLID_5_" gradientUnits="userSpaceOnUse" x1="1324.6611" y1="103.8641" x2="1697.2666" y2="103.8641">
	<stop  offset="0" style="stop-color:#9B247D"/>
	<stop  offset="1" style="stop-color:#462F81"/>
</linearGradient>
<path id="XMLID_129_" fill="url(#XMLID_5_)" d="M1627.8,64h-243.5l-59.7,79.8h372.6L1627.8,64z M1349.7,139.6h-4.1v-16.4h4.1V139.6z
	 M1360,139.6h-4.1v-28h4.1V139.6z M1370.4,139.6h-4.1V99.7h4.1V139.6z M1380.7,139.6h-4.1V90h4.1V139.6z M1389.5,139.6h-4.1V78.7
	h4.1V139.6z M1398.9,139.6h-4.1v-69h4.1V139.6z M1409.2,139.6h-4.1v-69h4.1V139.6z M1419.6,139.6h-4.1v-69h4.1V139.6z M1430,139.6
	h-4.1v-69h4.1V139.6z M1440.3,139.6h-4.1v-69h4.1V139.6z M1450.7,139.6h-4.1v-69h4.1V139.6z M1461,139.6h-4.1v-69h4.1V139.6z
	 M1471.4,139.6h-4.1v-69h4.1V139.6z M1481.8,139.6h-4.1v-69h4.1V139.6z M1492.1,139.6h-4.1v-69h4.1V139.6z M1502.5,139.6h-4.1v-69
	h4.1V139.6z M1512.8,139.6h-4.1v-69h4.1V139.6z M1523.2,139.6h-4.1v-69h4.1V139.6z M1533.6,139.6h-4.1v-69h4.1V139.6z M1543.9,139.6
	h-4.1v-69h4.1V139.6z M1554.3,139.6h-4.1v-69h4.1V139.6z M1564.6,139.6h-4.1v-69h4.1V139.6z M1575,139.6h-4.1v-69h4.1V139.6z
	 M1585.4,139.6h-4.1v-69h4.1V139.6z M1595.7,139.6h-4.1v-69h4.1V139.6z M1606.1,139.6h-4.1v-69h4.1V139.6z M1616.5,139.6h-4.1v-69
	h4.1V139.6z M1626.8,139.6h-4.1v-69h4.1V139.6z M1637.2,139.6h-4.1v-57h4.1V139.6z M1647.5,139.6h-4.1V96h4.1V139.6z M1657.9,139.6
	h-4.1v-33.1h4.1V139.6z M1668.3,139.6h-4.1v-23.9h4.1V139.6z M1674.5,139.6v-14h4.1v14H1674.5z"/>
<linearGradient id="XMLID_6_" gradientUnits="userSpaceOnUse" x1="-14.3333" y1="140.2285" x2="2006.5402" y2="140.2285">
	<stop  offset="0" style="stop-color:#9B247D"/>
	<stop  offset="1" style="stop-color:#462F81"/>
</linearGradient>
<rect id="XMLID_88_" x="-14.3" y="137.6" fill="url(#XMLID_6_)" width="2020.9" height="5.3"/>
<linearGradient id="XMLID_7_" gradientUnits="userSpaceOnUse" x1="1684.0332" y1="147.9147" x2="1690.6603" y2="147.9147">
	<stop  offset="0" style="stop-color:#9B247D"/>
	<stop  offset="1" style="stop-color:#462F81"/>
</linearGradient>
<rect id="XMLID_92_" x="1684" y="142.6" fill="url(#XMLID_7_)" width="6.6" height="10.7"/>
<linearGradient id="XMLID_8_" gradientUnits="userSpaceOnUse" x1="1330.1451" y1="149.6556" x2="1336.7722" y2="149.6556">
	<stop  offset="0" style="stop-color:#9B247D"/>
	<stop  offset="1" style="stop-color:#462F81"/>
</linearGradient>
<rect id="XMLID_93_" x="1330.1" y="144.3" fill="url(#XMLID_8_)" width="6.6" height="10.7"/>
<linearGradient id="XMLID_9_" gradientUnits="userSpaceOnUse" x1="1513.2272" y1="148.8097" x2="1519.8541" y2="148.8097">
	<stop  offset="0" style="stop-color:#9B247D"/>
	<stop  offset="1" style="stop-color:#462F81"/>
</linearGradient>
<rect id="XMLID_94_" x="1513.2" y="143.5" fill="url(#XMLID_9_)" width="6.6" height="10.7"/>
<linearGradient id="XMLID_10_" gradientUnits="userSpaceOnUse" x1="744.6174" y1="97.1188" x2="779.0708" y2="97.1188">
	<stop  offset="0" style="stop-color:#9B247D"/>
	<stop  offset="1" style="stop-color:#462F81"/>
</linearGradient>
<rect id="XMLID_108_" x="744.6" y="42.2" fill="url(#XMLID_10_)" width="34.5" height="109.8"/>
<linearGradient id="XMLID_11_" gradientUnits="userSpaceOnUse" x1="610.0973" y1="83.6811" x2="653.2965" y2="83.6811">
	<stop  offset="0" style="stop-color:#9B247D"/>
	<stop  offset="1" style="stop-color:#462F81"/>
</linearGradient>
<rect id="XMLID_89_" x="610.1" y="15.3" fill="url(#XMLID_11_)" width="43.2" height="136.7"/>
<linearGradient id="XMLID_12_" gradientUnits="userSpaceOnUse" x1="670.1106" y1="83.6811" x2="723.8203" y2="83.6811">
	<stop  offset="0" style="stop-color:#9B247D"/>
	<stop  offset="1" style="stop-color:#462F81"/>
</linearGradient>
<rect id="XMLID_109_" x="670.1" y="15.3" fill="url(#XMLID_12_)" width="53.7" height="136.7"/>
<linearGradient id="XMLID_13_" gradientUnits="userSpaceOnUse" x1="564.8883" y1="97.1188" x2="599.3417" y2="97.1188">
	<stop  offset="0" style="stop-color:#9B247D"/>
	<stop  offset="1" style="stop-color:#462F81"/>
</linearGradient>
<rect id="XMLID_90_" x="564.9" y="42.2" fill="url(#XMLID_13_)" width="34.5" height="109.8"/>
</svg>
