<?xml version="1.0" encoding="utf-8"?>
<!-- Generator: Adobe Illustrator 19.0.0, SVG Export Plug-In . SVG Version: 6.00 Build 0)  -->
<svg version="1.1" id="Layer_1" xmlns="http://www.w3.org/2000/svg" xmlns:xlink="http://www.w3.org/1999/xlink" x="0px" y="0px"
	 viewBox="0 0 2000 300" enable-background="new 0 0 2000 300" xml:space="preserve">
<linearGradient id="XMLID_2_" gradientUnits="userSpaceOnUse" x1="957.0388" y1="286.1882" x2="958.5442" y2="286.1882">
	<stop  offset="0" style="stop-color:#9B247D"/>
	<stop  offset="1" style="stop-color:#462F81"/>
</linearGradient>
<path id="XMLID_87_" fill="url(#XMLID_2_)" d="M958,302.8h-0.3c-0.3,0-0.6-0.3-0.6-0.6v-32.1c0-0.3,0.3-0.6,0.6-0.6h0.3
	c0.3,0,0.6,0.3,0.6,0.6v32.1C958.5,302.5,958.3,302.8,958,302.8z"/>
<linearGradient id="XMLID_3_" gradientUnits="userSpaceOnUse" x1="946.6667" y1="264.9754" x2="968.8406" y2="264.9754">
	<stop  offset="0" style="stop-color:#9B247D"/>
	<stop  offset="1" style="stop-color:#462F81"/>
</linearGradient>
<polygon id="XMLID_86_" fill="url(#XMLID_3_)" points="953.2,271.6 946.7,267.7 946.7,262.2 953.2,258.4 962.3,258.4 968.8,262.2 
	968.8,267.7 962.3,271.6 "/>
<linearGradient id="XMLID_4_" gradientUnits="userSpaceOnUse" x1="952.7297" y1="264.9754" x2="967.6658" y2="264.9754">
	<stop  offset="0" style="stop-color:#9B247D"/>
	<stop  offset="1" style="stop-color:#462F81"/>
</linearGradient>
<polygon id="XMLID_85_" fill="url(#XMLID_4_)" points="957.1,270.2 952.7,267.1 952.7,262.8 957.1,259.8 963.3,259.8 967.7,262.8 
	967.7,267.1 963.3,270.2 "/>
<linearGradient id="XMLID_5_" gradientUnits="userSpaceOnUse" x1="1176.111" y1="236.3452" x2="1883.3149" y2="236.3452">
	<stop  offset="0" style="stop-color:#9B247D"/>
	<stop  offset="1" style="stop-color:#462F81"/>
</linearGradient>
<path id="XMLID_129_" fill="url(#XMLID_5_)" d="M1751.6,183.2h-462.1l-113.3,106.3h707.2L1751.6,183.2z M1223.6,283.9h-7.9v-21.8
	h7.9V283.9z M1243.2,283.9h-7.9v-37.4h7.9V283.9z M1262.9,283.9h-7.9v-53.1h7.9V283.9z M1282.6,283.9h-7.9v-66h7.9V283.9z
	 M1299.3,283.9h-7.9v-81.1h7.9V283.9z M1317,283.9h-7.9V192h7.9V283.9z M1336.6,283.9h-7.9V192h7.9V283.9z M1356.3,283.9h-7.9V192
	h7.9V283.9z M1376,283.9h-7.9V192h7.9V283.9z M1395.6,283.9h-7.9V192h7.9V283.9z M1415.3,283.9h-7.9V192h7.9V283.9z M1435,283.9
	h-7.9V192h7.9V283.9z M1454.6,283.9h-7.9V192h7.9V283.9z M1474.3,283.9h-7.9V192h7.9V283.9z M1493.9,283.9h-7.9V192h7.9V283.9z
	 M1513.6,283.9h-7.9V192h7.9V283.9z M1533.3,283.9h-7.9V192h7.9V283.9z M1552.9,283.9h-7.9V192h7.9V283.9z M1572.6,283.9h-7.9V192
	h7.9V283.9z M1592.3,283.9h-7.9V192h7.9V283.9z M1611.9,283.9h-7.9V192h7.9V283.9z M1631.6,283.9h-7.9V192h7.9V283.9z M1651.3,283.9
	h-7.9V192h7.9V283.9z M1670.9,283.9h-7.9V192h7.9V283.9z M1690.6,283.9h-7.9V192h7.9V283.9z M1710.3,283.9h-7.9V192h7.9V283.9z
	 M1729.9,283.9h-7.9V192h7.9V283.9z M1749.6,283.9h-7.9V192h7.9V283.9z M1769.3,283.9h-7.9V208h7.9V283.9z M1788.9,283.9h-7.9v-58.1
	h7.9V283.9z M1808.6,283.9h-7.9v-44.1h7.9V283.9z M1828.3,283.9h-7.9v-31.8h7.9V283.9z M1840.1,283.9v-18.7h7.9v18.7H1840.1z"/>
<linearGradient id="XMLID_6_" gradientUnits="userSpaceOnUse" x1="0" y1="286.4029" x2="2000" y2="286.4029">
	<stop  offset="0" style="stop-color:#9B247D"/>
	<stop  offset="1" style="stop-color:#462F81"/>
</linearGradient>
<rect id="XMLID_88_" y="282.9" fill="url(#XMLID_6_)" width="2000" height="7.1"/>
<linearGradient id="XMLID_7_" gradientUnits="userSpaceOnUse" x1="1858.198" y1="295.0187" x2="1870.776" y2="295.0187">
	<stop  offset="0" style="stop-color:#9B247D"/>
	<stop  offset="1" style="stop-color:#462F81"/>
</linearGradient>
<rect id="XMLID_92_" x="1858.2" y="287.9" fill="url(#XMLID_7_)" width="12.6" height="14.2"/>
<linearGradient id="XMLID_8_" gradientUnits="userSpaceOnUse" x1="1186.5197" y1="297.3376" x2="1199.0978" y2="297.3376">
	<stop  offset="0" style="stop-color:#9B247D"/>
	<stop  offset="1" style="stop-color:#462F81"/>
</linearGradient>
<rect id="XMLID_93_" x="1186.5" y="290.2" fill="url(#XMLID_8_)" width="12.6" height="14.2"/>
<linearGradient id="XMLID_9_" gradientUnits="userSpaceOnUse" x1="1534.0087" y1="296.2108" x2="1546.5867" y2="296.2108">
	<stop  offset="0" style="stop-color:#9B247D"/>
	<stop  offset="1" style="stop-color:#462F81"/>
</linearGradient>
<rect id="XMLID_94_" x="1534" y="289.1" fill="url(#XMLID_9_)" width="12.6" height="14.2"/>
<linearGradient id="XMLID_10_" gradientUnits="userSpaceOnUse" x1="812.9574" y1="228.9826" x2="878.3499" y2="228.9826">
	<stop  offset="0" style="stop-color:#9B247D"/>
	<stop  offset="1" style="stop-color:#462F81"/>
</linearGradient>
<rect id="XMLID_108_" x="813" y="155.8" fill="url(#XMLID_10_)" width="65.4" height="146.3"/>
<linearGradient id="XMLID_11_" gradientUnits="userSpaceOnUse" x1="557.6387" y1="202.3578" x2="639.6307" y2="202.3578">
	<stop  offset="0" style="stop-color:#9B247D"/>
	<stop  offset="1" style="stop-color:#462F81"/>
</linearGradient>
<rect id="XMLID_89_" x="557.6" y="102.6" fill="url(#XMLID_11_)" width="82" height="199.6"/>
<linearGradient id="XMLID_12_" gradientUnits="userSpaceOnUse" x1="671.5438" y1="211.0841" x2="773.4846" y2="211.0841">
	<stop  offset="0" style="stop-color:#9B247D"/>
	<stop  offset="1" style="stop-color:#462F81"/>
</linearGradient>
<rect id="XMLID_109_" x="671.5" y="120" fill="url(#XMLID_12_)" width="101.9" height="182.1"/>
<linearGradient id="XMLID_13_" gradientUnits="userSpaceOnUse" x1="471.8322" y1="228.9826" x2="537.2247" y2="228.9826">
	<stop  offset="0" style="stop-color:#9B247D"/>
	<stop  offset="1" style="stop-color:#462F81"/>
</linearGradient>
<rect id="XMLID_90_" x="471.8" y="155.8" fill="url(#XMLID_13_)" width="65.4" height="146.3"/>
</svg>
