<?xml version="1.0" encoding="utf-8"?>
<!-- Generator: Adobe Illustrator 19.0.0, SVG Export Plug-In . SVG Version: 6.00 Build 0)  -->
<svg version="1.1" id="Layer_1" xmlns="http://www.w3.org/2000/svg" xmlns:xlink="http://www.w3.org/1999/xlink" x="0px" y="0px"
	 viewBox="0 0 792 612" enable-background="new 0 0 792 612" xml:space="preserve">
<linearGradient id="XMLID_5_" gradientUnits="userSpaceOnUse" x1="13.9583" y1="322.0544" x2="792" y2="322.0544">
	<stop  offset="0" style="stop-color:#9B247D"/>
	<stop  offset="1" style="stop-color:#462F81"/>
</linearGradient>
<polygon id="XMLID_7_" fill="url(#XMLID_5_)" points="792,613 577.3,609.4 328.6,347.7 14,31.1 14,31.1 792,31.1 "/>
<linearGradient id="XMLID_6_" gradientUnits="userSpaceOnUse" x1="683.273" y1="361.5587" x2="785.8294" y2="361.5587">
	<stop  offset="0" style="stop-color:#9B247D"/>
	<stop  offset="1" style="stop-color:#462F81"/>
</linearGradient>
<rect id="XMLID_52_" x="683.3" y="118.8" fill="url(#XMLID_6_)" width="102.6" height="485.4"/>
<rect id="XMLID_2_" x="514.5" y="227.2" fill="#462F81" width="128.1" height="381.2"/>
<rect id="XMLID_3_" x="658.9" y="297.4" fill="#9B247D" width="76.2" height="310.9"/>
<linearGradient id="XMLID_28_" gradientUnits="userSpaceOnUse" x1="535.6514" y1="265.2715" x2="564.5762" y2="265.2715">
	<stop  offset="0" style="stop-color:#9B247D"/>
	<stop  offset="1" style="stop-color:#462F81"/>
</linearGradient>
<rect id="XMLID_1_" x="535.7" y="248.9" fill="url(#XMLID_28_)" stroke="#FFFFFF" stroke-width="0.75" stroke-miterlimit="10" width="28.9" height="32.8"/>
<linearGradient id="XMLID_29_" gradientUnits="userSpaceOnUse" x1="591.187" y1="265.2715" x2="620.1118" y2="265.2715">
	<stop  offset="0" style="stop-color:#9B247D"/>
	<stop  offset="1" style="stop-color:#462F81"/>
</linearGradient>
<rect id="XMLID_8_" x="591.2" y="248.9" fill="url(#XMLID_29_)" stroke="#FFFFFF" stroke-width="0.75" stroke-miterlimit="10" width="28.9" height="32.8"/>
<linearGradient id="XMLID_30_" gradientUnits="userSpaceOnUse" x1="536.3638" y1="313.8185" x2="565.2886" y2="313.8185">
	<stop  offset="0" style="stop-color:#9B247D"/>
	<stop  offset="1" style="stop-color:#462F81"/>
</linearGradient>
<rect id="XMLID_10_" x="536.4" y="297.4" fill="url(#XMLID_30_)" stroke="#FFFFFF" stroke-width="0.75" stroke-miterlimit="10" width="28.9" height="32.8"/>
<linearGradient id="XMLID_31_" gradientUnits="userSpaceOnUse" x1="591.8994" y1="313.8185" x2="620.8242" y2="313.8185">
	<stop  offset="0" style="stop-color:#9B247D"/>
	<stop  offset="1" style="stop-color:#462F81"/>
</linearGradient>
<rect id="XMLID_9_" x="591.9" y="297.4" fill="url(#XMLID_31_)" stroke="#FFFFFF" stroke-width="0.75" stroke-miterlimit="10" width="28.9" height="32.8"/>
<linearGradient id="XMLID_32_" gradientUnits="userSpaceOnUse" x1="537.0761" y1="362.3656" x2="566.0009" y2="362.3656">
	<stop  offset="0" style="stop-color:#9B247D"/>
	<stop  offset="1" style="stop-color:#462F81"/>
</linearGradient>
<rect id="XMLID_12_" x="537.1" y="346" fill="url(#XMLID_32_)" stroke="#FFFFFF" stroke-width="0.75" stroke-miterlimit="10" width="28.9" height="32.8"/>
<linearGradient id="XMLID_33_" gradientUnits="userSpaceOnUse" x1="592.6118" y1="362.3656" x2="621.5366" y2="362.3656">
	<stop  offset="0" style="stop-color:#9B247D"/>
	<stop  offset="1" style="stop-color:#462F81"/>
</linearGradient>
<rect id="XMLID_11_" x="592.6" y="346" fill="url(#XMLID_33_)" stroke="#FFFFFF" stroke-width="0.75" stroke-miterlimit="10" width="28.9" height="32.8"/>
<linearGradient id="XMLID_34_" gradientUnits="userSpaceOnUse" x1="537.7885" y1="410.9127" x2="566.7133" y2="410.9127">
	<stop  offset="0" style="stop-color:#9B247D"/>
	<stop  offset="1" style="stop-color:#462F81"/>
</linearGradient>
<rect id="XMLID_14_" x="537.8" y="394.5" fill="url(#XMLID_34_)" stroke="#FFFFFF" stroke-width="0.75" stroke-miterlimit="10" width="28.9" height="32.8"/>
<linearGradient id="XMLID_35_" gradientUnits="userSpaceOnUse" x1="593.3241" y1="410.9127" x2="622.2489" y2="410.9127">
	<stop  offset="0" style="stop-color:#9B247D"/>
	<stop  offset="1" style="stop-color:#462F81"/>
</linearGradient>
<rect id="XMLID_13_" x="593.3" y="394.5" fill="url(#XMLID_35_)" stroke="#FFFFFF" stroke-width="0.75" stroke-miterlimit="10" width="28.9" height="32.8"/>
<linearGradient id="XMLID_36_" gradientUnits="userSpaceOnUse" x1="538.5009" y1="459.4598" x2="567.4257" y2="459.4598">
	<stop  offset="0" style="stop-color:#9B247D"/>
	<stop  offset="1" style="stop-color:#462F81"/>
</linearGradient>
<rect id="XMLID_16_" x="538.5" y="443.1" fill="url(#XMLID_36_)" stroke="#FFFFFF" stroke-width="0.75" stroke-miterlimit="10" width="28.9" height="32.8"/>
<linearGradient id="XMLID_37_" gradientUnits="userSpaceOnUse" x1="594.0365" y1="459.4598" x2="622.9612" y2="459.4598">
	<stop  offset="0" style="stop-color:#9B247D"/>
	<stop  offset="1" style="stop-color:#462F81"/>
</linearGradient>
<rect id="XMLID_15_" x="594" y="443.1" fill="url(#XMLID_37_)" stroke="#FFFFFF" stroke-width="0.75" stroke-miterlimit="10" width="28.9" height="32.8"/>
<linearGradient id="XMLID_38_" gradientUnits="userSpaceOnUse" x1="539.2132" y1="508.0069" x2="568.138" y2="508.0069">
	<stop  offset="0" style="stop-color:#9B247D"/>
	<stop  offset="1" style="stop-color:#462F81"/>
</linearGradient>
<rect id="XMLID_18_" x="539.2" y="491.6" fill="url(#XMLID_38_)" stroke="#FFFFFF" stroke-width="0.75" stroke-miterlimit="10" width="28.9" height="32.8"/>
<linearGradient id="XMLID_39_" gradientUnits="userSpaceOnUse" x1="594.7488" y1="508.0069" x2="623.6736" y2="508.0069">
	<stop  offset="0" style="stop-color:#9B247D"/>
	<stop  offset="1" style="stop-color:#462F81"/>
</linearGradient>
<rect id="XMLID_17_" x="594.7" y="491.6" fill="url(#XMLID_39_)" stroke="#FFFFFF" stroke-width="0.75" stroke-miterlimit="10" width="28.9" height="32.8"/>
<linearGradient id="XMLID_40_" gradientUnits="userSpaceOnUse" x1="682.5607" y1="325.9553" x2="711.4855" y2="325.9553">
	<stop  offset="0" style="stop-color:#9B247D"/>
	<stop  offset="1" style="stop-color:#462F81"/>
</linearGradient>
<rect id="XMLID_26_" x="682.6" y="309.6" fill="url(#XMLID_40_)" stroke="#FFFFFF" stroke-width="0.5" stroke-miterlimit="10" width="28.9" height="32.8"/>
<linearGradient id="XMLID_41_" gradientUnits="userSpaceOnUse" x1="683.273" y1="374.5024" x2="712.1978" y2="374.5024">
	<stop  offset="0" style="stop-color:#9B247D"/>
	<stop  offset="1" style="stop-color:#462F81"/>
</linearGradient>
<rect id="XMLID_25_" x="683.3" y="358.1" fill="url(#XMLID_41_)" stroke="#FFFFFF" stroke-width="0.5" stroke-miterlimit="10" width="28.9" height="32.8"/>
<linearGradient id="XMLID_42_" gradientUnits="userSpaceOnUse" x1="683.9854" y1="423.0495" x2="712.9102" y2="423.0495">
	<stop  offset="0" style="stop-color:#9B247D"/>
	<stop  offset="1" style="stop-color:#462F81"/>
</linearGradient>
<rect id="XMLID_24_" x="684" y="406.7" fill="url(#XMLID_42_)" stroke="#FFFFFF" stroke-width="0.5" stroke-miterlimit="10" width="28.9" height="32.8"/>
<linearGradient id="XMLID_43_" gradientUnits="userSpaceOnUse" x1="684.6978" y1="471.5966" x2="713.6226" y2="471.5966">
	<stop  offset="0" style="stop-color:#9B247D"/>
	<stop  offset="1" style="stop-color:#462F81"/>
</linearGradient>
<rect id="XMLID_23_" x="684.7" y="455.2" fill="url(#XMLID_43_)" stroke="#FFFFFF" stroke-width="0.5" stroke-miterlimit="10" width="28.9" height="32.8"/>
<linearGradient id="XMLID_44_" gradientUnits="userSpaceOnUse" x1="685.4101" y1="520.1437" x2="714.3349" y2="520.1437">
	<stop  offset="0" style="stop-color:#9B247D"/>
	<stop  offset="1" style="stop-color:#462F81"/>
</linearGradient>
<rect id="XMLID_22_" x="685.4" y="503.8" fill="url(#XMLID_44_)" stroke="#FFFFFF" stroke-width="0.5" stroke-miterlimit="10" width="28.9" height="32.8"/>
<linearGradient id="XMLID_45_" gradientUnits="userSpaceOnUse" x1="686.1225" y1="568.6907" x2="715.0473" y2="568.6907">
	<stop  offset="0" style="stop-color:#9B247D"/>
	<stop  offset="1" style="stop-color:#462F81"/>
</linearGradient>
<rect id="XMLID_21_" x="686.1" y="552.3" fill="url(#XMLID_45_)" stroke="#FFFFFF" stroke-width="0.5" stroke-miterlimit="10" width="28.9" height="32.8"/>
<linearGradient id="XMLID_46_" gradientUnits="userSpaceOnUse" x1="539.9256" y1="556.554" x2="568.8504" y2="556.554">
	<stop  offset="0" style="stop-color:#9B247D"/>
	<stop  offset="1" style="stop-color:#462F81"/>
</linearGradient>
<rect id="XMLID_20_" x="539.9" y="540.2" fill="url(#XMLID_46_)" stroke="#FFFFFF" stroke-width="0.75" stroke-miterlimit="10" width="28.9" height="32.8"/>
<linearGradient id="XMLID_47_" gradientUnits="userSpaceOnUse" x1="595.4612" y1="556.554" x2="624.386" y2="556.554">
	<stop  offset="0" style="stop-color:#9B247D"/>
	<stop  offset="1" style="stop-color:#462F81"/>
</linearGradient>
<rect id="XMLID_19_" x="595.5" y="540.2" fill="url(#XMLID_47_)" stroke="#FFFFFF" stroke-width="0.75" stroke-miterlimit="10" width="28.9" height="32.8"/>
<linearGradient id="XMLID_48_" gradientUnits="userSpaceOnUse" x1="44.9981" y1="601.2423" x2="793.6667" y2="601.2423">
	<stop  offset="0" style="stop-color:#9B247D"/>
	<stop  offset="1" style="stop-color:#462F81"/>
</linearGradient>
<path id="XMLID_50_" fill="url(#XMLID_48_)" d="M428.3,612.3c52.2,0.1,119.5,0.2,204.7,0c69.2-0.2,125.4-0.5,160.7-0.7
	c-29.4-5.8-55.3-9.7-76.6-12.3c-46.7-5.7-82.9-7-98-7.4c-97.5-2.9-111.5,10-216.3,8.6c-76.9-1-105.7-8.4-153.9-10.5
	c-31.8-1.4-55.6,0-60.6,0.2C114.6,593.1,44.6,605.9,45,611c0.3,3.8,40.7,1.4,163.3,0.7C269.2,611.3,239.5,612,428.3,612.3z"/>
<linearGradient id="XMLID_49_" gradientUnits="userSpaceOnUse" x1="122.5746" y1="104.3591" x2="199.7074" y2="104.3591">
	<stop  offset="0" style="stop-color:#9B247D"/>
	<stop  offset="1" style="stop-color:#462F81"/>
</linearGradient>
<polygon id="XMLID_27_" fill="url(#XMLID_49_)" points="193.3,208.7 122.6,137.6 122.6,0 199.7,0 "/>
<linearGradient id="XMLID_54_" gradientUnits="userSpaceOnUse" x1="265.9305" y1="182.2754" x2="344.6537" y2="182.2754">
	<stop  offset="0" style="stop-color:#9B247D"/>
	<stop  offset="1" style="stop-color:#462F81"/>
</linearGradient>
<polygon id="XMLID_51_" fill="url(#XMLID_54_)" points="344.7,364.6 265.9,283.6 265.9,0 344.7,0 "/>
<linearGradient id="XMLID_56_" gradientUnits="userSpaceOnUse" x1="381.7869" y1="297.4345" x2="460.5101" y2="297.4345">
	<stop  offset="0" style="stop-color:#9B247D"/>
	<stop  offset="1" style="stop-color:#462F81"/>
</linearGradient>
<polygon id="XMLID_55_" fill="url(#XMLID_56_)" points="460.5,486.5 381.8,403.6 381.8,108.4 460.5,108.4 "/>
<radialGradient id="XMLID_57_" cx="596.6685" cy="66.9933" r="87.0813" gradientTransform="matrix(0.9533 0 0 0.9346 36.8486 64.7145)" gradientUnits="userSpaceOnUse">
	<stop  offset="0" style="stop-color:#B9488F"/>
	<stop  offset="1" style="stop-color:#462F81;stop-opacity:0"/>
</radialGradient>
<ellipse id="XMLID_53_" fill="url(#XMLID_57_)" cx="605.6" cy="127.3" rx="83" ry="81.4"/>
</svg>
