<?xml version="1.0" encoding="utf-8"?>
<!-- Generator: Adobe Illustrator 19.0.0, SVG Export Plug-In . SVG Version: 6.00 Build 0)  -->
<svg version="1.1" id="Layer_1" xmlns="http://www.w3.org/2000/svg" xmlns:xlink="http://www.w3.org/1999/xlink" x="0px" y="0px"
	 viewBox="0 0 252.7 62.3" enable-background="new 0 0 252.7 62.3" xml:space="preserve">
<linearGradient id="XMLID_54_" gradientUnits="userSpaceOnUse" x1="108.0905" y1="48.3774" x2="113.3868" y2="48.3774">
	<stop  offset="0" style="stop-color:#9B247D"/>
	<stop  offset="1" style="stop-color:#462F81"/>
</linearGradient>
<circle id="XMLID_197_" fill="url(#XMLID_54_)" cx="110.7" cy="48.4" r="2.6"/>
<linearGradient id="XMLID_55_" gradientUnits="userSpaceOnUse" x1="132.4536" y1="48.3774" x2="137.7499" y2="48.3774">
	<stop  offset="0" style="stop-color:#9B247D"/>
	<stop  offset="1" style="stop-color:#462F81"/>
</linearGradient>
<circle id="XMLID_196_" fill="url(#XMLID_55_)" cx="135.1" cy="48.4" r="2.6"/>
<g id="XMLID_189_">
	<linearGradient id="XMLID_56_" gradientUnits="userSpaceOnUse" x1="100.203" y1="40.3147" x2="144.9931" y2="40.3147">
		<stop  offset="0" style="stop-color:#9B247D"/>
		<stop  offset="1" style="stop-color:#462F81"/>
	</linearGradient>
	<path id="XMLID_190_" fill="url(#XMLID_56_)" d="M144.7,46.6v-4.3h-0.8l-0.3-0.6l-3.8-9.4h-30.1l-4.5,9.4h-4.7v5
		c-0.2,0-0.3,0.2-0.3,0.4v1c0,0.2,0.2,0.4,0.4,0.4h7.1c0-1.7,1.4-3.1,3.1-3.1s3.1,1.4,3.1,3.1H132c0-1.7,1.4-3.1,3.1-3.1
		s3.1,1.4,3.1,3.1h6.3c0.2,0,0.4-0.2,0.4-0.4v-1C145,46.8,144.9,46.6,144.7,46.6z M141.9,40.4h-2.6l-0.3-7L141.9,40.4z M126,33.4
		h9.2v7H126V33.4z M113.8,33.4h8.8v7h-8.8V33.4z M111.4,33.4v7h-3.9L111.4,33.4z"/>
</g>
<linearGradient id="XMLID_57_" gradientUnits="userSpaceOnUse" x1="191.2942" y1="47.4376" x2="198.741" y2="47.4376">
	<stop  offset="0" style="stop-color:#9B247D"/>
	<stop  offset="1" style="stop-color:#462F81"/>
</linearGradient>
<circle id="XMLID_188_" fill="url(#XMLID_57_)" cx="195" cy="47.4" r="3.7"/>
<linearGradient id="XMLID_58_" gradientUnits="userSpaceOnUse" x1="225.5492" y1="47.4376" x2="232.9959" y2="47.4376">
	<stop  offset="0" style="stop-color:#9B247D"/>
	<stop  offset="1" style="stop-color:#462F81"/>
</linearGradient>
<circle id="XMLID_187_" fill="url(#XMLID_58_)" cx="229.3" cy="47.4" r="3.7"/>
<g id="XMLID_182_">
	<linearGradient id="XMLID_59_" gradientUnits="userSpaceOnUse" x1="180.203" y1="34.2047" x2="243.173" y2="34.2047">
		<stop  offset="0" style="stop-color:#9B247D"/>
		<stop  offset="1" style="stop-color:#462F81"/>
	</linearGradient>
	<path id="XMLID_183_" fill="url(#XMLID_59_)" d="M242.7,44.9V21h-52.4l-9.7,12.4v11.6c-0.3,0-0.4,0.3-0.4,0.6v1.4
		c0,0.3,0.3,0.6,0.6,0.6h9.9c0-2.4,1.9-4.4,4.4-4.4c2.4,0,4.4,2,4.4,4.4H225c0-2.4,1.9-4.4,4.4-4.4c2.4,0,4.3,2,4.3,4.4h8.9
		c0.3,0,0.6-0.3,0.6-0.6v-1.4C243.2,45.2,243,45,242.7,44.9z M190.7,33.3h-7.8l7.8-9.8V33.3z M192.4,33.3v-9.8h4.2v9.8H192.4z"/>
</g>
<linearGradient id="XMLID_60_" gradientUnits="userSpaceOnUse" x1="19.7603" y1="47.3929" x2="27.8853" y2="47.3929">
	<stop  offset="0" style="stop-color:#9B247D"/>
	<stop  offset="1" style="stop-color:#462F81"/>
</linearGradient>
<circle id="XMLID_181_" fill="url(#XMLID_60_)" cx="23.8" cy="47.4" r="4.1"/>
<linearGradient id="XMLID_61_" gradientUnits="userSpaceOnUse" x1="57.1353" y1="47.3929" x2="65.2603" y2="47.3929">
	<stop  offset="0" style="stop-color:#9B247D"/>
	<stop  offset="1" style="stop-color:#462F81"/>
</linearGradient>
<circle id="XMLID_180_" fill="url(#XMLID_61_)" cx="61.2" cy="47.4" r="4.1"/>
<g id="XMLID_175_">
	<linearGradient id="XMLID_62_" gradientUnits="userSpaceOnUse" x1="7.6554" y1="32.9529" x2="76.3653" y2="32.9529">
		<stop  offset="0" style="stop-color:#9B247D"/>
		<stop  offset="1" style="stop-color:#462F81"/>
	</linearGradient>
	<path id="XMLID_176_" fill="url(#XMLID_62_)" d="M75.9,44.7V18.5H18.7L8.1,32v12.6c-0.3,0.1-0.5,0.3-0.5,0.6v1.5
		c0,0.3,0.3,0.6,0.6,0.6h10.8c0-2.6,2.1-4.8,4.8-4.8s4.8,2.1,4.8,4.8h27.9c0-2.6,2.1-4.8,4.8-4.8s4.7,2.1,4.7,4.8h9.7
		c0.3,0,0.6-0.3,0.6-0.6v-1.5C76.4,45,76.2,44.7,75.9,44.7z M19.1,32h-8.5l8.5-10.8V32z M32.4,32H21V21.3h11.4V32z"/>
</g>
<linearGradient id="XMLID_63_" gradientUnits="userSpaceOnUse" x1="33.4887" y1="23.6274" x2="75.8853" y2="23.6274">
	<stop  offset="0" style="stop-color:#9B247D"/>
	<stop  offset="1" style="stop-color:#462F81"/>
</linearGradient>
<rect id="XMLID_174_" x="33.5" y="11" fill="url(#XMLID_63_)" width="42.4" height="25.2"/>
<linearGradient id="XMLID_64_" gradientUnits="userSpaceOnUse" x1="143.6331" y1="41.9397" x2="144.673" y2="41.9397">
	<stop  offset="0" style="stop-color:#9B247D"/>
	<stop  offset="1" style="stop-color:#462F81"/>
</linearGradient>
<polygon id="XMLID_173_" fill="url(#XMLID_64_)" points="144.7,41.6 144.7,42.2 143.9,42.2 143.6,41.6 "/>
</svg>
