<?xml version="1.0" encoding="utf-8"?>
<!-- Generator: Adobe Illustrator 19.0.0, SVG Export Plug-In . SVG Version: 6.00 Build 0)  -->
<svg version="1.1" id="Layer_1" xmlns="http://www.w3.org/2000/svg" xmlns:xlink="http://www.w3.org/1999/xlink" x="0px" y="0px"
	 viewBox="0 0 252.7 62.3" enable-background="new 0 0 252.7 62.3" xml:space="preserve">
<linearGradient id="XMLID_54_" gradientUnits="userSpaceOnUse" x1="123.2423" y1="47.0545" x2="128.5386" y2="47.0545">
	<stop  offset="0" style="stop-color:#9B247D"/>
	<stop  offset="1" style="stop-color:#462F81"/>
</linearGradient>
<circle id="XMLID_197_" fill="url(#XMLID_54_)" cx="125.9" cy="47.1" r="2.6"/>
<linearGradient id="XMLID_55_" gradientUnits="userSpaceOnUse" x1="147.6054" y1="47.0545" x2="152.9017" y2="47.0545">
	<stop  offset="0" style="stop-color:#9B247D"/>
	<stop  offset="1" style="stop-color:#462F81"/>
</linearGradient>
<circle id="XMLID_196_" fill="url(#XMLID_55_)" cx="150.3" cy="47.1" r="2.6"/>
<g id="XMLID_189_">
	<linearGradient id="XMLID_56_" gradientUnits="userSpaceOnUse" x1="115.3549" y1="38.9918" x2="160.1449" y2="38.9918">
		<stop  offset="0" style="stop-color:#9B247D"/>
		<stop  offset="1" style="stop-color:#462F81"/>
	</linearGradient>
	<path id="XMLID_190_" fill="url(#XMLID_56_)" d="M159.8,45.3v-4.3H159l-0.3-0.6l-3.8-9.4h-30.1l-4.5,9.4h-4.7v5
		c-0.2,0-0.3,0.2-0.3,0.4v1c0,0.2,0.2,0.4,0.4,0.4h7.1c0-1.7,1.4-3.1,3.1-3.1s3.1,1.4,3.1,3.1h18.2c0-1.7,1.4-3.1,3.1-3.1
		s3.1,1.4,3.1,3.1h6.3c0.2,0,0.4-0.2,0.4-0.4v-1C160.1,45.5,160,45.3,159.8,45.3z M157,39h-2.6l-0.3-7L157,39z M141.2,32h9.2v7h-9.2
		V32z M128.9,32h8.8v7h-8.8V32z M126.5,32v7h-3.9L126.5,32z"/>
</g>
<linearGradient id="XMLID_57_" gradientUnits="userSpaceOnUse" x1="191.2942" y1="47.4376" x2="198.741" y2="47.4376">
	<stop  offset="0" style="stop-color:#9B247D"/>
	<stop  offset="1" style="stop-color:#462F81"/>
</linearGradient>
<circle id="XMLID_188_" fill="url(#XMLID_57_)" cx="195" cy="47.4" r="3.7"/>
<linearGradient id="XMLID_58_" gradientUnits="userSpaceOnUse" x1="225.5492" y1="47.4376" x2="232.9959" y2="47.4376">
	<stop  offset="0" style="stop-color:#9B247D"/>
	<stop  offset="1" style="stop-color:#462F81"/>
</linearGradient>
<circle id="XMLID_187_" fill="url(#XMLID_58_)" cx="229.3" cy="47.4" r="3.7"/>
<g id="XMLID_182_">
	<linearGradient id="XMLID_59_" gradientUnits="userSpaceOnUse" x1="180.203" y1="34.2047" x2="243.173" y2="34.2047">
		<stop  offset="0" style="stop-color:#9B247D"/>
		<stop  offset="1" style="stop-color:#462F81"/>
	</linearGradient>
	<path id="XMLID_183_" fill="url(#XMLID_59_)" d="M242.7,44.9V21h-52.4l-9.7,12.4v11.6c-0.3,0-0.4,0.3-0.4,0.6v1.4
		c0,0.3,0.3,0.6,0.6,0.6h9.9c0-2.4,1.9-4.4,4.4-4.4c2.4,0,4.4,2,4.4,4.4H225c0-2.4,1.9-4.4,4.4-4.4c2.4,0,4.3,2,4.3,4.4h8.9
		c0.3,0,0.6-0.3,0.6-0.6v-1.4C243.2,45.2,243,45,242.7,44.9z M190.7,33.3h-7.8l7.8-9.8V33.3z M192.4,33.3v-9.8h4.2v9.8H192.4z"/>
</g>
<linearGradient id="XMLID_60_" gradientUnits="userSpaceOnUse" x1="43.917" y1="47.3098" x2="52.042" y2="47.3098">
	<stop  offset="0" style="stop-color:#9B247D"/>
	<stop  offset="1" style="stop-color:#462F81"/>
</linearGradient>
<circle id="XMLID_181_" fill="url(#XMLID_60_)" cx="48" cy="47.3" r="4.1"/>
<linearGradient id="XMLID_61_" gradientUnits="userSpaceOnUse" x1="81.292" y1="47.3098" x2="89.417" y2="47.3098">
	<stop  offset="0" style="stop-color:#9B247D"/>
	<stop  offset="1" style="stop-color:#462F81"/>
</linearGradient>
<circle id="XMLID_180_" fill="url(#XMLID_61_)" cx="85.4" cy="47.3" r="4.1"/>
<g id="XMLID_175_">
	<linearGradient id="XMLID_62_" gradientUnits="userSpaceOnUse" x1="31.812" y1="32.8698" x2="100.522" y2="32.8698">
		<stop  offset="0" style="stop-color:#9B247D"/>
		<stop  offset="1" style="stop-color:#462F81"/>
	</linearGradient>
	<path id="XMLID_176_" fill="url(#XMLID_62_)" d="M100,44.6V18.4H42.8L32.3,31.9v12.6c-0.3,0.1-0.5,0.3-0.5,0.6v1.5
		c0,0.3,0.3,0.6,0.6,0.6h10.8c0-2.6,2.1-4.8,4.8-4.8s4.8,2.1,4.8,4.8h27.9c0-2.6,2.1-4.8,4.8-4.8s4.8,2.1,4.8,4.8h9.7
		c0.3,0,0.6-0.3,0.6-0.6v-1.5C100.5,44.9,100.3,44.6,100,44.6z M43.3,31.9h-8.5l8.5-10.8V31.9z M56.5,31.9H45.1V21.2h11.4V31.9z"/>
</g>
<linearGradient id="XMLID_63_" gradientUnits="userSpaceOnUse" x1="57.6454" y1="23.5444" x2="100.042" y2="23.5444">
	<stop  offset="0" style="stop-color:#9B247D"/>
	<stop  offset="1" style="stop-color:#462F81"/>
</linearGradient>
<rect id="XMLID_174_" x="57.6" y="11" fill="url(#XMLID_63_)" width="42.4" height="25.2"/>
<linearGradient id="XMLID_64_" gradientUnits="userSpaceOnUse" x1="158.7849" y1="40.6168" x2="159.8248" y2="40.6168">
	<stop  offset="0" style="stop-color:#9B247D"/>
	<stop  offset="1" style="stop-color:#462F81"/>
</linearGradient>
<polygon id="XMLID_173_" fill="url(#XMLID_64_)" points="159.8,40.3 159.8,40.9 159,40.9 158.8,40.3 "/>
</svg>
