<?xml version="1.0" encoding="utf-8"?>
<!-- Generator: Adobe Illustrator 19.0.0, SVG Export Plug-In . SVG Version: 6.00 Build 0)  -->
<svg version="1.1" id="Layer_1" xmlns="http://www.w3.org/2000/svg" xmlns:xlink="http://www.w3.org/1999/xlink" x="0px" y="0px"
	 viewBox="0 0 80.7 62.3" enable-background="new 0 0 80.7 62.3" xml:space="preserve">
<linearGradient id="XMLID_67_" gradientUnits="userSpaceOnUse" x1="19.3016" y1="42.5389" x2="26.7484" y2="42.5389">
	<stop  offset="0" style="stop-color:#9B247D"/>
	<stop  offset="1" style="stop-color:#462F81"/>
</linearGradient>
<circle id="XMLID_188_" fill="url(#XMLID_67_)" cx="23" cy="42.5" r="3.7"/>
<linearGradient id="XMLID_68_" gradientUnits="userSpaceOnUse" x1="53.5566" y1="42.5389" x2="61.0033" y2="42.5389">
	<stop  offset="0" style="stop-color:#9B247D"/>
	<stop  offset="1" style="stop-color:#462F81"/>
</linearGradient>
<circle id="XMLID_187_" fill="url(#XMLID_68_)" cx="57.3" cy="42.5" r="3.7"/>
<g id="XMLID_182_">
	<linearGradient id="XMLID_69_" gradientUnits="userSpaceOnUse" x1="8.2104" y1="29.306" x2="71.1804" y2="29.306">
		<stop  offset="0" style="stop-color:#9B247D"/>
		<stop  offset="1" style="stop-color:#462F81"/>
	</linearGradient>
	<path id="XMLID_183_" fill="url(#XMLID_69_)" d="M70.7,40v-24H18.3L8.7,28.4V40c-0.3,0-0.4,0.3-0.4,0.6V42c0,0.3,0.3,0.6,0.6,0.6
		h9.9c0-2.4,1.9-4.4,4.4-4.4c2.4,0,4.4,2,4.4,4.4H53c0-2.4,1.9-4.4,4.4-4.4c2.4,0,4.3,2,4.3,4.4h8.9c0.3,0,0.6-0.3,0.6-0.6v-1.4
		C71.2,40.3,71,40.1,70.7,40z M18.7,28.4h-7.8l7.8-9.8V28.4z M20.4,28.4v-9.8h4.2v9.8H20.4z"/>
</g>
</svg>
