<?xml version="1.0" encoding="utf-8"?>
<!-- Generator: Adobe Illustrator 19.0.0, SVG Export Plug-In . SVG Version: 6.00 Build 0)  -->
<svg version="1.1" id="Layer_1" xmlns="http://www.w3.org/2000/svg" xmlns:xlink="http://www.w3.org/1999/xlink" x="0px" y="0px"
	 viewBox="0 0 80.7 62.3" enable-background="new 0 0 80.7 62.3" xml:space="preserve">
<linearGradient id="XMLID_67_" gradientUnits="userSpaceOnUse" x1="19.7603" y1="47.3929" x2="27.8853" y2="47.3929">
	<stop  offset="0" style="stop-color:#9B247D"/>
	<stop  offset="1" style="stop-color:#462F81"/>
</linearGradient>
<circle id="XMLID_181_" fill="url(#XMLID_67_)" cx="23.8" cy="47.4" r="4.1"/>
<linearGradient id="XMLID_68_" gradientUnits="userSpaceOnUse" x1="57.1353" y1="47.3929" x2="65.2603" y2="47.3929">
	<stop  offset="0" style="stop-color:#9B247D"/>
	<stop  offset="1" style="stop-color:#462F81"/>
</linearGradient>
<circle id="XMLID_180_" fill="url(#XMLID_68_)" cx="61.2" cy="47.4" r="4.1"/>
<g id="XMLID_175_">
	<linearGradient id="XMLID_69_" gradientUnits="userSpaceOnUse" x1="7.6554" y1="32.9529" x2="76.3653" y2="32.9529">
		<stop  offset="0" style="stop-color:#9B247D"/>
		<stop  offset="1" style="stop-color:#462F81"/>
	</linearGradient>
	<path id="XMLID_176_" fill="url(#XMLID_69_)" d="M75.9,44.7V18.5H18.7L8.1,32v12.6c-0.3,0.1-0.5,0.3-0.5,0.6v1.5
		c0,0.3,0.3,0.6,0.6,0.6h10.8c0-2.6,2.1-4.8,4.8-4.8s4.8,2.1,4.8,4.8h27.9c0-2.6,2.1-4.8,4.8-4.8s4.7,2.1,4.7,4.8h9.7
		c0.3,0,0.6-0.3,0.6-0.6v-1.5C76.4,45,76.2,44.7,75.9,44.7z M19.1,32h-8.5l8.5-10.8V32z M32.4,32H21V21.3h11.4V32z"/>
</g>
<linearGradient id="XMLID_70_" gradientUnits="userSpaceOnUse" x1="33.4887" y1="23.6274" x2="75.8853" y2="23.6274">
	<stop  offset="0" style="stop-color:#9B247D"/>
	<stop  offset="1" style="stop-color:#462F81"/>
</linearGradient>
<rect id="XMLID_174_" x="33.5" y="11" fill="url(#XMLID_70_)" width="42.4" height="25.2"/>
</svg>
